<?xml version="1.0" encoding="UTF-8" standalone="no"?>
<svg
   width="324.380961mm"
   height="191.198755mm"
   viewBox="0 0 324.380961 191.198755"
   version="1.1"
   xmlns="http://www.w3.org/2000/svg">
  <path
     id="claudeE011"
     style="fill:#000000;stroke:none"
     d="M68.6886424 0.0Q71.454628 0.0 74.335863 3.918479600000012Q76.7561004 7.2607122 76.7561004 9.335201400000017Q76.7561004 10.83344360000001 75.9493546 13.484179799999993Q74.91211 16.94166180000002 73.2986184 16.94166180000002Q73.4138678 16.94166180000002 73.183369 16.82641240000001Q72.4918726 16.595913600000017 70.6478822 14.175676199999998Q68.573393 11.294441199999994 66.3836544 11.294441199999994Q61.5431796 11.409690600000005 57.3942012 34.6900694Q57.048452999999995 36.41881040000001 56.7603295 37.744178500000004Q56.472206 39.069546599999995 56.1264578 40.452539400000006Q56.1264578 40.452539400000006 56.1264578 40.51016410000001Q56.1264578 40.56778880000002 56.1264578 40.56778880000002Q56.1264578 40.6830382 56.0688331 40.913537000000005Q56.0112084 41.14403580000001 55.895959000000005 41.489784000000014Q55.2044626 43.910021400000005 54.6282156 45.811636500000006Q54.051968599999995 47.71325160000001 53.360472200000004 48.98099500000001Q52.3232276 50.94023480000001 51.5164818 51.51648180000001Q44.6015178 67.5361484 45.9845106 72.2613738Q47.5980022 77.6780956 52.438477 76.29510280000001Q54.97396380000001 75.48835700000001 56.70270480000001 73.18336900000001Q57.8551988 71.454628 58.316196399999995 71.3393786Q58.431445800000006 71.454628 59.0076928 71.56987740000001Q59.0076928 71.8003762 59.0653175 72.54949730000001Q59.1229422 73.29861840000001 59.353441000000004 74.56636180000001Q60.2754362 86.6675488 51.5164818 89.318285Q44.2557696 91.5080236 41.3745346 82.17282220000001Q39.3000454 75.02735940000001 42.2965298 64.65491340000001Q44.7167672 55.78070960000001 49.6724914 48.17424920000002Q49.2114938 43.910021400000005 45.1777648 33.65282480000002Q40.6830382 22.127884800000004 38.608549 21.89738600000001Q37.2255562 22.012635399999994 36.879808 22.81938120000001Q36.4188104 23.856625800000018 34.6900694 23.741376400000007Q32.7308296 23.856625800000018 29.2733476 20.744891999999993Q26.0463644 17.748407600000007 25.931115 15.904417200000012Q26.0463644 14.982422000000014 28.6971006 10.372445999999997Q31.2325874 6.223467599999992 32.0393332 5.7624700000000075Q32.1545826 5.7624700000000075 32.1545826 5.647220599999997H32.269832Q39.184796 5.7624700000000075 44.4862684 13.714678600000013Q50.0182396 21.89738600000001 52.0927288 34.6900694Q52.3232276 35.9578128 52.3232276 36.18831160000002Q52.438477 36.303561 52.438477 36.36118570000001Q52.438477 36.41881040000001 52.438477 36.41881040000001H52.5537264H52.6689758V36.303561Q52.6689758 36.303561 52.6689758 36.18831160000002Q52.6689758 36.07306220000001 52.8994746 35.72731400000001Q53.1299734 35.381565800000004 53.24522279999999 34.57482000000002Q54.3977168 26.853110200000003 58.5466952 11.179191800000012Q63.2719206 0.11524940000001038 68.6886424 0.0ZM211.3673996 0.0V0.11524940000001038Q211.48264899999998 0.0 211.48264899999998 0.11524940000001038H211.59789840000002H211.7131478Q211.82839719999998 0.11524940000001038 211.94364660000002 0.11524940000001038H212.058896V0.23049879999999234H212.1741454Q212.4046442 0.6914964000000055 211.82839719999998 2.3049880000000087Q209.5234092 7.952208600000006 208.025167 9.104702599999996Q192.00550040000002 14.982422000000014 177.31120190000001 20.514393200000015Q162.6169034 26.046364400000016 148.32597779999998 31.463086199999992Q148.095479 31.463086199999992 148.2107284 31.463086199999992Q143.0245054 33.422326 137.89590710000002 35.3239411Q132.76730880000002 37.2255562 127.69633520000001 39.184796000000006Q117.09339039999999 43.218525 106.54807029999999 47.1946293Q96.0027502 51.170733600000005 84.3625608 55.5502108Q84.708309 54.05196860000001 85.7455536 51.34360770000001Q86.7827982 48.635246800000004 87.7047934 46.445508200000006Q88.6267886 44.25576960000001 88.742038 44.025270800000015Q90.1250308 43.5642732 95.4841279 41.60503340000001Q100.843225 39.64579360000002 108.910683 36.764558600000015Q116.97814100000001 33.88332360000001 126.77434 30.368216900000007Q136.570539 26.853110200000003 147.0582344 23.107504700000007Q157.5459298 19.36189920000001 167.5726276 15.789167800000001Q177.5993254 12.216436399999992 186.2430304 9.104702599999996Q194.88673540000002 5.9929688 201.05257830000002 3.8032302000000016Q207.21842120000002 1.6134916000000032 209.63865859999999 0.6914964000000055Q210.2149056 0.4609976000000131 210.6182785 0.28812350000001175Q211.0216514 0.11524940000001038 211.3673996 0.0ZM280.5170396 16.365414799999996Q280.9780372 16.250165400000014 283.2830252 17.517908800000015Q284.3202698 17.9789064 287.2015048 19.650022700000008Q290.0827398 21.321139000000016 292.9639748 23.04988Q295.9604592 24.893870399999997 298.0925731 26.219238500000003Q300.224687 27.54460660000001 300.224687 27.65985600000002Q300.3399364 27.89035480000001 299.1298177 30.598715700000014Q297.919699 33.307076600000016 296.0757086 36.99505740000001Q294.34696759999997 40.6830382 293.0215995 43.449023800000006Q291.6962314 46.215009400000014 291.580982 46.330258799999996Q291.3504832 46.676007 290.8894856 46.676007Q290.6589868 46.676007 288.3539988 45.35063890000001Q286.04901079999996 44.025270800000015 283.0525264 42.18128040000002Q280.056042 40.337289999999996 277.11718229999997 38.608549Q274.1783226 36.879808 273.0258286 36.303561Q270.9513394 35.15106700000001 270.37509239999997 35.0358176H270.259843Q270.259843 35.15106700000001 268.8768502 37.5713044Q267.49385739999997 39.99154179999999 265.649867 43.218525Q263.8058766 46.56075760000002 262.4805085 48.980995000000014Q261.1551404 51.40123240000001 261.039891 51.51648180000001Q260.6941428 51.7469806 260.3483946 51.7469806Q260.1178958 51.7469806 258.9077771 51.1131089Q257.69765839999997 50.4792372 256.0841668 49.557242Q254.47067520000002 48.635246800000004 252.3385613 47.42512810000001Q250.2064474 46.215009400000014 248.8234546 45.4082636Q247.44046179999998 44.60151780000001 245.8269702 43.737147300000004Q244.21347860000003 42.8727768 243.4067328 42.2965298Q242.599987 41.9507816 241.9661153 41.547408700000005Q241.33224360000003 41.14403580000001 241.2169942 40.91353700000002Q241.2169942 40.79828760000001 242.4847376 37.97467730000001Q243.752481 35.15106700000001 245.481222 31.34783680000001Q247.90145939999996 26.276863200000008 248.88107929999998 24.317623400000002Q249.8606992 22.358383599999996 250.2064474 22.127884800000004V22.012635399999994Q250.32169679999998 22.012635399999994 250.32169679999998 22.012635399999994H250.43694619999997Q251.12844259999997 22.012635399999994 253.66392939999997 23.510877600000015Q254.81642339999996 24.08712460000001 257.6400337 25.758240900000004Q260.463644 27.4293572 263.344879 29.158098200000012Q266.226114 30.886839199999997 268.30060319999995 32.0393332Q270.37509239999997 33.191827200000006 270.4903418 33.191827200000006Q270.4903418 33.191827200000006 271.93095930000004 30.7715898Q273.3715768 28.351352399999996 275.3308166 25.009119800000008Q277.174807 21.55163780000001 278.6730492 19.016151000000008Q280.1712914 16.480664200000007 280.4017902 16.365414799999996ZM221.5093468 27.4293572Q221.62459619999998 27.4293572 221.73984560000002 27.4293572V27.54460660000001H221.855095Q221.9703444 27.54460660000001 222.08559380000003 27.54460660000001H222.2008432V27.65985600000002H222.3160926Q222.5465914 28.120853600000004 221.9703444 29.734345200000007Q219.6653564 35.381565800000004 218.16711420000001 36.534059799999994Q216.092625 37.2255562 210.906402 39.184796000000006Q205.72017900000003 41.14403580000001 198.68996560000002 43.737147300000004Q191.6597522 46.330258799999996 183.9380424 49.2691185Q176.2163326 52.2079782 168.8979957 54.9739638Q161.5796588 57.7399494 155.8171888 59.987312700000004Q150.0547188 62.23467600000001 146.94298500000002 63.50241940000001Q148.32597779999998 58.31619640000001 151.20721279999998 52.0927288Q154.08844779999998 51.05548420000001 159.620419 49.09624440000001Q165.1523902 47.13700460000001 172.1249789 44.71676720000001Q179.0975676 42.2965298 186.58877859999998 39.70341830000001Q194.07998959999998 37.11030680000002 200.8220795 34.74769410000002Q207.56416940000003 32.38508140000002 212.5775183 30.598715700000014Q217.5908672 28.81235000000001 219.7806058 28.120853600000004Q220.3568528 27.89035480000001 220.7602257 27.71748070000001Q221.1635986 27.54460660000001 221.5093468 27.4293572ZM312.90212099999997 60.85168320000001Q320.6238308 60.96693260000001 320.6238308 70.76313160000001Q320.6238308 78.1390932 314.7461114 87.35904520000001Q308.6378932 97.15524420000001 299.1874424 103.95495880000001Q295.4994616 106.4904456 294.6927158 106.60569500000001H294.5774664Q294.5774664 106.60569500000001 294.51984170000003 106.5480703Q294.462217 106.4904456 294.462217 106.4904456L294.5774664 106.3751962Q294.8079652 105.68369980000001 297.6892002 102.34146720000001Q313.3631186 84.708309 313.3631186 78.83058960000001Q313.3631186 73.29861840000001 308.4073944 73.18336900000001Q305.64140879999997 73.29861840000001 303.3364208 74.91211000000001Q301.7229292 76.17985340000001 301.26193159999997 76.29510280000001Q301.0314328 75.9493546 300.57043519999996 75.83410520000001Q300.6856846 75.6036064 300.800934 74.85448530000001Q300.91618339999997 74.10536420000001 301.1466822 72.83762080000001Q303.682169 60.96693260000001 312.90212099999997 60.85168320000001ZM229.5768048 67.19040020000001H229.69205420000003L229.8073036 67.30564960000001Q230.15305180000001 67.5361484 230.38355059999998 69.49538820000001Q230.49880000000002 71.10887980000001 230.7869235 72.4342479Q231.07504699999998 73.75961600000001 231.4207952 74.7968606Q231.53604460000003 74.91211000000001 232.3427904 76.92897450000001Q233.1495362 78.945839 234.76302779999997 82.74906920000001Q236.7222676 87.47429460000001 236.7222676 89.7792826Q236.7222676 94.15875980000001 234.76302779999997 99.114484Q232.1122916 105.33795160000001 227.84806379999998 105.33795160000001Q221.1635986 105.33795160000001 218.39761299999998 96.46374780000001Q215.2858792 107.6429396 206.75742359999998 107.6429396Q203.6456898 107.6429396 201.34070179999998 104.6464552Q198.6899656 101.07372380000001 198.5747162 95.08075500000001V85.74555360000001Q198.6899656 84.5930596 197.1917234 84.132062Q195.6934812 83.55581500000001 195.6934812 81.7118246Q195.8087306 78.6000908 198.228968 75.6036064Q200.64920540000003 73.0681196 201.68644999999998 73.0681196Q203.2999416 73.0681196 203.2999416 79.0610884Q203.2999416 80.67458 203.24231690000002 81.99994810000001Q203.18469220000003 83.3253162 203.0694428 84.36256080000001Q202.9541934 85.3998054 202.838944 86.3218006Q202.7236946 87.2437958 202.7236946 88.0505416Q202.7236946 91.5080236 204.1066874 94.27400920000001Q205.72017900000003 97.73149120000001 208.1404164 97.73149120000001Q211.3673996 97.73149120000001 214.01813579999998 94.9655056Q216.7841214 92.19952 216.7841214 88.5115392Q216.7841214 86.3218006 215.2858792 81.250827Q213.78763700000002 76.17985340000001 213.78763700000002 74.7968606Q213.9028864 73.64436660000001 214.940131 71.3393786Q215.97737560000002 69.2648894 216.55362259999998 68.91914120000001H216.66887200000002H216.7841214Q217.70611660000003 69.38013880000001 219.3196082 75.83410520000001Q220.126354 79.29158720000001 220.4721022 81.82707400000001Q220.8178504 84.36256080000001 220.8178504 85.9760524Q220.8178504 95.3112538 228.4243108 95.3112538Q231.7665434 95.3112538 232.4580398 92.19952Q226.11932280000002 81.02032820000001 226.11932280000002 75.1426088Q226.11932280000002 71.56987740000001 227.84806379999998 69.14964Q229.1158072 67.420899 229.5768048 67.19040020000001ZM265.5346176 70.76313160000001H265.4193682Q265.30411879999997 70.76313160000001 265.5346176 70.878381H265.649867Q266.1108646 70.9936304 267.49385739999997 73.4138678Q268.1853538 74.56636180000001 270.0869689 77.85096970000001Q271.988584 81.1355776 273.9478238 84.708309Q275.9070636 88.28104040000001 277.9239281 91.91139650000001Q279.9407926 95.54175260000001 280.8627878 97.0399948Q282.8220276 100.3822274 282.8220276 100.9584744V101.07372380000001L282.7067782 101.1889732Q282.4762794 101.41947200000001 282.01528179999997 101.7652202Q281.32378539999996 101.99571900000001 279.5950444 101.53472140000001Q278.903548 101.41947200000001 277.6934293 101.01609910000002Q276.4833106 100.61272620000001 275.5613154 100.26697800000001Q273.9478238 99.69073100000001 273.2563274 99.5754816Q273.141078 99.69073100000001 273.4868262 103.14821300000001Q273.8325744 106.60569500000001 274.40882139999997 111.4461698Q274.9850684 116.401894 275.5613154 121.5304923Q276.1375624 126.65909060000001 276.4833106 129.079328Q276.7138094 131.4995654 277.11718229999997 134.2079263Q277.5205552 136.9162872 277.751054 138.29928Q278.2120516 141.0652656 278.327301 141.2957644L278.4425504 141.4110138H278.5577998H278.6730492Q278.78829859999996 141.4110138 279.8831679 140.9500162Q280.9780372 140.4890186 282.2457806 140.02802100000002Q283.6287734 139.451774 285.53038849999996 138.81790230000001Q287.4320036 138.1840306 288.8149964 137.8382824Q292.0419796 136.80103780000002 294.8079652 136.3400402Q295.9604592 136.1095414 297.4587014 135.9366673Q298.9569436 135.7637932 300.1094376 135.6485438Q301.26193159999997 135.53329440000002 302.4720503 135.5909191Q303.682169 135.6485438 304.6041642 135.7637932Q305.29566059999996 135.8790426 306.44815459999995 136.1671661Q307.6006486 136.45528960000001 308.4073944 136.80103780000002Q310.36663419999996 137.49253420000002 312.0953752 138.5297788Q312.7868716 138.875527 313.88174089999995 139.7975222Q314.9766102 140.7195174 315.78335599999997 141.4110138Q317.62734639999996 143.2550042 318.664591 144.5227476Q319.1255886 145.0989946 319.64421089999996 145.9057404Q320.16283319999997 146.7124862 320.50858139999997 147.2887332Q321.4305766 148.9022248 322.122073 150.7462152Q322.5830706 151.552961 322.9288188 152.70545500000003Q323.274567 153.85794900000002 323.5050658 154.6646948Q323.9660634 156.8544334 324.1965622 159.50516960000002Q324.427061 160.8881624 324.36943629999996 162.1559058Q324.3118116 163.4236492 324.1965622 164.806642Q323.9660634 167.4573782 323.5050658 169.64711680000002Q323.274567 170.4538626 322.8711941 171.77923070000003Q322.4678212 173.10459880000002 322.2373224 174.1418434Q321.4305766 176.4468314 320.50858139999997 178.5213206Q320.0475838 179.3280664 319.4713368 180.4805604Q318.8950898 181.63305440000002 318.4340922 182.3245508Q317.8578452 183.0160472 317.2239735 183.8804177Q316.5901018 184.74478820000002 316.1291042 185.3210352Q315.6681066 185.7820328 314.8613608 186.4735292Q314.054615 187.1650256 313.478368 187.62602320000002Q311.9801258 188.6632678 310.597133 189.3547642Q310.1361354 189.585263 309.2141402 189.9310112Q308.292145 190.2767594 307.4853992 190.5072582Q306.6786534 190.73775700000002 305.41090999999994 190.91063110000002Q304.1431666 191.08350520000002 302.8754232 191.1987546Q301.60767979999997 191.1987546 300.2823117 191.1411299Q298.9569436 191.08350520000002 297.919699 190.8530064L297.8044496 190.9682558Q295.4994616 190.5072582 293.0792242 189.9310112Q292.157229 189.7005124 290.8318609 189.2395148Q289.5064928 188.7785172 288.58449759999996 188.3175196Q287.6625024 187.856522 286.56763309999997 187.28027500000002Q285.4727638 186.704028 284.666018 186.2430304Q283.9745216 185.7820328 282.937277 185.0329117Q281.9000324 184.2837906 281.208536 183.5922942Q280.5170396 183.0160472 279.5374197 182.0364273Q278.5577998 181.0568074 277.9815528 180.2500616Q277.29005639999997 179.5585652 276.4833106 178.40607119999999Q275.6765648 177.2535772 275.10031779999997 176.331582Q274.5240708 175.5248362 273.8325744 174.2570928Q273.141078 172.9893494 272.6800804 172.18260360000002Q272.21908279999997 171.3758578 271.70046049999996 170.1657391Q271.1818382 168.95562040000002 270.83609 168.03362520000002Q270.4903418 167.2268794 270.1445936 166.4777583Q269.7988454 165.7286372 269.7988454 165.6133878Q269.7988454 165.49813840000002 269.7988454 165.382889H269.68359599999997H269.5683466Q269.2225984 165.382889 267.14810919999996 166.4201336Q266.1108646 166.9963806 264.15162480000004 168.0912499Q262.192385 169.1861192 260.463644 170.22336380000002Q258.8501524 171.145359 256.71803850000003 172.3554777Q254.5859246 173.5655964 253.31818119999997 174.1418434Q251.93518840000002 174.8333398 250.0335733 175.6977103Q248.13195819999999 176.56208080000002 246.633716 177.1383278Q245.25072319999998 177.7145748 243.2914834 178.4060712Q241.33224360000003 179.09756760000002 239.94925080000002 179.44331580000002Q238.6815074 179.789064 236.837517 180.19243690000002Q234.9935266 180.5958098 233.72578320000002 180.8263086Q231.88179280000003 181.1720568 230.49880000000002 181.22968150000003Q229.1158072 181.28730620000002 226.34982159999998 181.1720568Q223.81433479999998 181.1720568 222.4889667 180.9991827Q221.1635986 180.8263086 220.0111046 180.5958098Q219.20435880000002 180.36531100000002 218.16711420000001 179.9619381Q217.1298696 179.5585652 216.55362259999998 179.3280664Q214.940131 178.63657 213.67238759999998 177.82982420000002Q213.0961406 177.48407600000002 212.2317701 176.7349549Q211.3673996 175.9858338 210.6759032 175.29433740000002Q209.9844068 174.602841 209.12003629999998 173.5079717Q208.25566579999997 172.4131024 207.6794188 171.49110720000002Q206.41167539999998 169.5318674 205.72017900000003 167.4573782Q204.9134332 165.382889 204.56768499999998 163.30839980000002Q204.4524356 162.38640460000002 204.2219368 160.65766360000003Q203.99143800000002 158.92892260000002 203.7609392 157.31543100000002Q203.6456898 155.70193940000001 203.4728157 154.37657130000002Q203.2999416 153.0512032 203.18469220000003 152.8207044Q203.0694428 152.3597068 202.7236946 152.01395860000002Q202.14744760000002 151.8987092 200.7644548 152.4749562Q200.0729584 152.59020560000002 199.0357138 153.05120320000003Q197.9984692 153.51220080000002 197.30697279999998 153.7426996Q196.61547639999998 154.0884478 193.4461179 155.70193940000001Q190.2767594 157.31543100000002 186.5887786 159.27467080000002Q182.90079780000002 161.2339106 179.1551923 163.13552570000002Q175.4095868 165.0371408 173.9113446 165.84388660000002Q172.29785299999998 166.535383 170.05048969999999 167.5150029Q167.8031264 168.4946228 166.3048842 169.1861192Q164.69139260000003 169.7623662 162.32877990000003 170.74198610000002Q159.96616720000003 171.721606 158.12217679999998 172.4131024Q156.27818639999998 172.9893494 153.56982549999998 173.96896930000003Q150.86146459999998 174.94858920000001 148.78697540000002 175.64008560000002Q146.7124862 176.21633260000002 144.0041253 177.0807031Q141.2957644 177.9450736 139.451774 178.5213206Q137.6077836 178.9823182 135.0722968 179.67381460000001Q132.53681 180.36531100000002 130.6928196 180.8263086Q128.9640786 181.28730620000002 126.198093 181.9788026Q123.43210739999999 182.670299 121.3576182 183.1312966Q119.3983784 183.5922942 116.51714340000001 184.1685412Q113.6359084 184.74478820000002 111.6766686 185.09053640000002Q109.71742880000001 185.43628460000002 107.0090679 185.95490690000003Q104.300707 186.4735292 102.45671660000001 186.704028Q100.6127262 187.0497762 97.9043653 187.45314910000002Q95.1960044 187.856522 93.1215152 188.0870208Q91.1622754 188.3175196 88.5115392 188.6056431Q85.860803 188.89376660000002 84.2473114 189.009016Q82.5185704 189.2395148 80.098333 189.4123889Q77.6780956 189.585263 75.9493546 189.7005124Q74.335863 189.81576180000002 71.6275021 189.8733865Q68.9191412 189.9310112 66.7294026 189.9310112Q64.6549134 189.9310112 62.1194266 189.8733865Q59.583939799999996 189.81576180000002 58.0856976 189.7005124Q56.587455399999996 189.585263 54.5705909 189.4123889Q52.5537264 189.2395148 51.285983 189.009016Q50.0182396 188.89376660000002 48.001375100000004 188.6056431Q45.9845106 188.3175196 44.4862684 187.97177140000002Q42.8727768 187.62602320000002 40.798287599999995 187.10740090000002Q38.7237984 186.5887786 37.3408056 186.2430304Q35.9578128 185.7820328 34.2290718 185.2057858Q32.5003308 184.6295388 31.4630862 184.2837906Q30.310592200000002 183.82279300000002 28.581851200000003 183.0160472Q26.853110200000003 182.20930140000002 25.4701174 181.517805Q24.087124600000003 180.8263086 22.473633 179.84668870000002Q20.860141399999996 178.8670688 19.9381462 178.17557240000002Q19.016151 177.5993254 17.8060323 176.6773302Q16.5959136 175.755335 15.904417200000001 175.0638386Q13.945177399999999 173.45034700000002 12.2164364 171.3758578Q10.372446 169.416618 8.9894532 167.2268794Q8.297956799999998 166.3048842 7.491210999999998 164.9218914Q6.684465199999998 163.5388986 6.223467599999999 162.501654Q5.76247 161.46440940000002 5.1285983 160.02379190000002Q4.4947266 158.58317440000002 4.033728999999999 157.5459298Q3.5727313999999986 156.5086852 3.1117337999999988 155.010443Q2.650736199999999 153.51220080000002 2.304988 152.4749562Q1.9592397999999989 151.32246220000002 1.6134915999999988 149.82422000000003Q1.2677433999999987 148.3259778 1.0372445999999993 147.2887332Q0.9219951999999996 146.25148860000002 0.6338716999999994 144.8108711Q0.3457481999999992 143.3702536 0.23049879999999945 142.333009Q0.11524939999999972 141.2957644 0.05762469999999986 139.16365050000002Q0.0 137.0315366 0.0 135.0722968Q0.0 133.113057 0.05762469999999986 130.8656937Q0.11524939999999972 128.6183304 0.23049879999999945 127.4658364Q0.3457481999999992 126.31334240000001 0.6338716999999994 124.46935200000001Q0.9219951999999996 122.6253616 1.2677433999999987 121.24236880000001Q1.4982422 119.859376 1.7863656999999993 118.3035091Q2.0744891999999986 116.7476422 2.304988 115.94089640000001Q2.5354867999999993 115.1341506 2.938859699999999 113.7511578Q3.342232599999999 112.368165 3.6879808 111.1004216Q4.033728999999999 109.94792760000001 4.667600699999999 108.16156190000001Q5.301472399999998 106.3751962 5.8777194 105.1074528Q6.338716999999999 103.8397094 7.145462799999999 101.99571900000001Q7.952208599999999 100.15172860000001 8.643705 98.88398520000001Q9.335201399999999 97.61624180000001 10.084322499999999 96.2908737Q10.833443599999999 94.9655056 11.179191799999998 94.504508Q12.2164364 93.2367646 12.792683399999998 92.89101640000001Q13.0231822 92.89101640000001 13.1384316 92.8333917Q13.253681 92.775767 13.3689304 92.6605176Q13.4841798 92.6605176 13.5994292 92.6605176Q13.5994292 92.6605176 13.7146786 92.775767Q13.829927999999999 92.775767 13.945177399999999 92.89101640000001H14.060426799999998V93.00626580000001Q14.175676199999998 93.1215152 14.175676199999998 93.1215152Q14.406175000000001 93.46726340000001 14.406175000000001 94.15875980000001Q14.406175000000001 94.61975740000001 14.0604268 95.77225140000002Q13.7146786 96.9247454 13.1384316 98.3077382Q12.562184599999998 99.5754816 11.9859376 101.3042226Q11.409690600000001 103.0329636 10.948692999999999 103.95495880000001Q10.6029448 104.99220340000001 10.141947199999999 106.605695Q9.680949599999998 108.2191866 9.450450799999999 109.3716806Q9.1047026 110.52417460000001 8.7589544 112.25291560000001Q8.413206200000001 113.98165660000001 8.182707399999998 115.24940000000001Q7.952208599999999 116.401894 7.779334499999999 118.3611338Q7.6064604 120.32037360000001 7.491211 121.8186158Q7.491211 123.54735680000002 7.491211 125.27609780000002Q7.491211 127.00483880000002 7.721709799999999 128.27258220000002Q7.836959199999999 129.4250762 8.1250827 131.09619250000003Q8.413206200000001 132.76730880000002 8.7589544 133.9198028Q8.9894532 134.95704740000002 9.5080755 136.51291430000003Q10.0266978 138.06878120000002 10.372446 139.1060258Q10.833443599999999 140.1432704 11.582564699999999 141.6415126Q12.331685799999999 143.1397548 12.907932800000001 144.1769994Q14.406175000000001 146.7124862 15.904417200000001 148.671726Q16.4806642 149.47847180000002 17.3450347 150.4580917Q18.2094052 151.4377116 18.7856522 152.129208Q19.3618992 152.8207044 20.3415191 153.7426996Q21.321139000000002 154.6646948 22.127884799999997 155.2409418Q22.9346306 155.9324382 24.202374 156.8544334Q25.4701174 157.7764286 26.392112599999997 158.3526756Q28.812350000000002 159.9661672 31.693585 161.34916Q32.9613284 161.925407 34.4595706 162.6169034Q35.9578128 163.30839980000002 36.879808 163.65414800000002Q37.8018032 163.9998962 39.3000454 164.4608938Q40.7982876 164.92189140000002 41.9507816 165.2676396Q43.1032756 165.6133878 44.8896413 166.01676070000002Q46.676007 166.4201336 48.0589998 166.76588180000002Q49.4419926 166.9963806 51.4588571 167.3421288Q53.4757216 167.68787700000001 54.97396380000001 167.9183758Q56.472206 168.03362520000002 59.2958163 168.264124Q62.1194266 168.4946228 64.539664 168.6098722Q67.8818966 168.840371 70.4750081 168.840371Q73.0681196 168.840371 76.640851 168.6098722Q79.2915872 168.4946228 82.403321 168.3217487Q85.5150548 168.1488746 87.2437958 167.9183758Q88.9725368 167.8031264 91.623273 167.5150029Q94.2740092 167.2268794 96.3484984 166.9963806Q98.3077382 166.6506324 101.3042226 166.2472595Q104.300707 165.84388660000002 106.3751962 165.49813840000002Q108.5649348 165.1523902 111.2732957 164.6337679Q113.98165660000001 164.1151456 115.5951482 163.8846468Q117.32388920000001 163.5388986 119.8017513 163.0202763Q122.2796134 162.501654 124.1236038 162.04065640000002Q125.9675942 161.69490820000001 128.5607057 161.0610365Q131.1538172 160.4271648 132.9978076 159.9661672Q134.84179799999998 159.50516960000002 137.7806577 158.6984238Q140.71951740000003 157.891678 143.0245054 157.2001816Q145.214244 156.6239346 148.3259778 155.6443147Q151.4377116 154.6646948 153.51220080000002 153.9731984Q155.4714406 153.281702 158.1798015 152.3597068Q160.8881624 151.4377116 162.6169034 150.7462152Q164.230395 150.1699682 166.8235065 149.13272360000002Q169.41661800000003 148.095479 171.26060840000002 147.2887332Q173.2198482 146.4819874 175.8705844 145.214244Q178.52132060000002 143.9465006 180.36531100000002 143.0245054Q182.20930140000002 142.1025102 186.01253160000002 140.1432704Q189.81576180000002 138.1840306 193.38849320000003 136.45528960000001Q196.96122459999998 134.61129920000002 200.3610819 132.99780760000002Q203.7609392 131.384316 205.02868260000002 130.9233184Q206.18117660000001 130.46232080000001 207.44892000000002 130.05894790000002Q208.71666340000002 129.655575 209.177661 129.54032560000002Q210.5606538 129.54032560000002 211.25215020000002 130.1165726Q211.94364660000002 130.6928196 212.058896 132.07581240000002Q212.058896 132.76730880000002 211.8860219 134.15030160000003Q211.7131478 135.53329440000002 211.25215020000002 137.8382824Q210.5606538 140.7195174 210.4454044 141.92963609999998Q210.330155 143.1397548 210.44540440000003 144.637997Q210.44540440000003 145.6752416 210.6182785 146.7124862Q210.79115259999998 147.7497308 211.13690079999998 148.44122720000001Q211.3673996 149.13272360000002 211.8860219 150.1123435Q212.4046442 151.0919634 212.8656418 151.7834598Q213.44188880000002 152.59020560000002 214.1910099 153.51220080000002Q214.940131 154.43419600000001 215.51637799999997 154.8951936Q216.092625 155.4714406 217.0146202 156.1053123Q217.9366154 156.73918400000002 218.6281118 157.2001816Q219.20435880000002 157.5459298 220.3568528 158.06455210000001Q221.5093468 158.58317440000002 222.43134200000003 158.92892260000002Q223.3533372 159.1594214 224.6210806 159.50516960000002Q225.888824 159.85091780000002 226.81081920000003 159.85091780000002Q229.00055780000002 160.196666 232.4580398 160.0814166Q234.3020302 159.9661672 235.97314649999998 159.7932931Q237.64426279999998 159.620419 239.0272556 159.27467080000002Q240.29499900000002 159.044172 242.08136470000002 158.5255497Q243.86773040000003 158.0069274 245.25072319999998 157.6611792Q246.5184666 157.2001816 248.1319582 156.6239346Q249.74544980000002 156.04768760000002 250.78269439999997 155.58669Q251.81993899999998 155.2409418 253.43343059999998 154.4918207Q255.04692219999998 153.7426996 256.3146656 153.0512032Q257.4671596 152.4749562 259.31115 151.49533630000002Q261.1551404 150.5157164 262.42288379999997 149.70897060000001Q263.921126 148.78697540000002 264.61262239999996 148.32597780000003Q265.30411879999997 147.86498020000002 265.4193682 147.6344814V147.51923200000002Q265.5346176 147.2887332 265.4193682 147.4039826Q265.4193682 147.2887332 265.4193682 147.2887332Q265.4193682 147.1734838 265.2464941 145.8481157Q265.07362 144.5227476 264.8431212 142.909256Q264.61262239999996 141.2957644 264.3244989 138.4721541Q264.0363754 135.6485438 263.8058766 133.2283064Q263.4601284 130.80806900000002 263.1720049 127.52346110000002Q262.8838814 124.23885320000001 262.6533826 122.04911460000001Q262.42288379999997 119.74412660000002 262.19238499999994 116.74764220000002Q261.9618862 113.75115780000002 261.7313874 111.79191800000001Q261.616138 109.8326782 261.3856392 106.8361938Q261.1551404 103.8397094 261.039891 101.6499708Q260.6941428 97.8467406 260.57889339999997 96.9247454Q260.463644 96.00275020000001 260.0026464 95.1960044Q259.31115 93.928261 258.158656 92.6605176Q257.1214114 91.27752480000001 257.2366608 90.70127780000001Q257.2366608 90.47077900000001 258.4467795 87.41666990000002Q259.6568982 84.36256080000001 261.2703898 80.44408120000001Q263.344879 75.02735940000001 264.2092495 73.06811960000002Q265.07362 71.10887980000001 265.4193682 70.76313160000001H265.5346176ZM171.3758578 75.6036064Q171.4911072 75.6036064 171.4911072 75.6036064H171.60635660000003Q171.60635660000003 76.29510280000001 169.76236619999997 80.55933060000001Q159.7356684 101.7652202 161.46440940000002 107.41244080000001Q162.96265160000002 112.71391320000001 167.8031264 111.33092040000001Q170.3386132 110.52417460000001 172.0673542 108.33443600000001Q173.33509759999998 106.60569500000001 173.79609520000002 106.4904456Q173.9113446 106.4904456 174.48759160000003 106.60569500000001Q174.48759160000003 106.95144320000001 174.54521630000002 107.70056430000001Q174.602841 108.4496854 174.83333979999998 109.71742880000001Q175.755335 121.8186158 166.9963806 124.46935200000001Q159.7356684 126.5438412 156.8544334 117.20863980000001Q154.7799442 110.1784264 157.77642859999997 99.69073100000001Q160.77291300000002 88.62678860000001 167.91837579999998 79.4068366Q170.56911200000002 76.064604 171.3758578 75.6036064ZM100.72797560000001 95.657002Q101.419472 95.7722514 103.6092106 97.0399948Q104.7617046 97.61624180000001 107.5276902 99.22973340000001Q110.2936758 100.843225 113.1749108 102.571966Q116.0561458 104.300707 118.13063500000001 105.62607510000001Q120.20512420000001 106.95144320000001 120.3203736 107.181942Q120.435623 107.2971914 119.51362780000001 109.48693Q118.59163260000001 111.67666860000001 116.1713952 116.86289160000001Q114.096906 121.24236880000001 112.8291626 123.7202309Q111.5614192 126.198093 111.3309204 126.198093Q111.1004216 126.31334240000001 108.6225595 124.87272490000001Q106.1446974 123.4321074 102.8024648 121.4728676Q99.46023220000001 119.51362780000001 96.46374780000001 117.72726210000002Q93.46726340000001 115.94089640000001 92.6605176 115.4798988L90.47077900000001 114.32740480000001L85.7455536 122.85586040000001Q83.9015632 126.4285918 82.403321 128.9064539Q80.9050788 131.384316 80.67458 131.4995654Q80.3288318 131.384316 79.2339625 130.80806900000002Q78.1390932 130.23182200000002 76.7561004 129.4250762Q75.2578582 128.503081 72.8952455 127.12008820000001Q70.5326328 125.73709540000002 68.8038918 124.69985080000001Q66.9599014 123.77785560000001 65.2311604 122.7982357Q63.502419399999994 121.8186158 62.9261724 121.58811700000001Q61.5431796 120.78137120000001 61.5431796 120.2051242Q61.5431796 120.0898748 62.753298300000004 117.3238892Q63.96341700000001 114.5579036 65.692158 110.86992280000001Q67.3056496 107.181942 68.6310177 104.4735811Q69.9563858 101.7652202 70.1868846 101.6499708Q70.1868846 101.53472140000001 70.1868846 101.53472140000001H70.302134L70.4173834 101.41947200000001Q70.878381 101.41947200000001 72.9528702 102.45671660000001Q73.9901148 103.0329636 76.92897450000001 104.70407990000001Q79.8678342 106.3751962 83.0948174 108.33443600000001Q87.2437958 110.86992280000001 88.7996627 111.73429330000002Q90.3555296 112.59866380000001 90.8165272 112.59866380000001V112.4834144H90.9317766Q91.047026 112.25291560000001 92.4876435 109.71742880000001Q93.928261 107.181942 95.7722514 103.8397094Q97.8467406 100.26697800000001 99.2297334 97.96199000000001Q100.6127262 95.657002 100.72797560000001 95.657002ZM298.1501978 156.73918400000002Q294.6927158 156.73918400000002 292.5029772 157.2001816Q291.580982 157.4306804 290.0827398 157.7188039Q288.58449759999996 158.0069274 287.4320036 158.3526756L284.4355192 159.1594214L284.8965168 159.85091780000002Q285.1270156 160.196666 285.7032626 160.94578710000002Q286.2795096 161.69490820000001 286.971006 162.501654Q287.6625024 163.1931504 288.8149964 164.17277030000002Q289.9674904 165.1523902 290.77423619999996 165.7286372Q292.8487254 166.9963806 294.34696759999997 167.68787700000001Q295.9604592 168.264124 297.8044496 168.840371Q298.6111954 169.0708698 299.8213141 169.3013686Q301.0314328 169.5318674 302.0686774 169.64711680000002Q303.10592199999996 169.7623662 304.5465395 169.8199909Q305.98715699999997 169.8776156 307.2549004 169.8776156Q310.02088599999996 169.8776156 311.8648764 169.30136860000002Q313.8241162 168.840371 314.8613608 168.264124Q315.78335599999997 167.68787700000001 315.8986054 167.11163000000002Q315.8986054 166.535383 314.9766102 165.0371408Q314.2851138 163.5388986 312.4411234 161.69490820000001Q310.71238239999997 159.9661672 308.6378932 158.92892260000002Q306.563404 157.891678 304.0279172 157.31543100000002Q302.6449244 157.0849322 301.3195563 156.91205810000002Q299.9941882 156.73918400000002 298.1501978 156.73918400000002Z" />
</svg>
