<?xml version="1.0" encoding="UTF-8" standalone="no"?>
<!-- Created with Inkscape (http://www.inkscape.org/) -->

<svg
   width="1474.8465718mm"
   height="469.7565544mm"
   viewBox="0 0 1474.8465718 469.7565544"
   version="1.1"
   xmlns="http://www.w3.org/2000/svg"><defs
     id="defs1" /><g
     id="layer1"><path
       id="bahE016.nastaliq"
       style="fill:#000000;stroke:none"
       d="M945.9670752 0.0V0.11524939999998196Q944.9298306 0.23049879999996392 942.0485956 2.0744891999999595Q938.3606148 4.955724199999963 930.4084062 12.446935199999984Q927.5271712 15.212920800000006 923.723941 18.497528700000004Q919.9207108 21.7821366 914.9649866 25.585366799999974Q910.0092624 29.388597000000004 904.3044171 33.53757540000001Q898.5995718 37.68655380000001 892.1456054 42.29652979999997Q885.9221378 46.90650579999999 879.0071737999999 51.689355899999995Q872.0922098 56.472206 864.8314976 61.543179599999974Q857.5707854 66.72940259999999 850.1371991 71.8580009Q842.7036128 76.9865992 835.2124018 82.2880716Q827.7211908 87.47429459999998 820.4604786 92.60289289999999Q813.1997664 97.7314912 806.0543036 102.8024648Q798.9088408 107.98868779999998 792.2820002999999 112.77153789999998Q785.6551598 117.55438799999999 779.5469416 122.0491146Q773.5539728 126.65909059999998 768.1948757 130.92331839999997Q762.8357786 135.18754619999999 758.4563014 138.9907764Q753.8463254 142.909256 750.6193421999999 146.13623919999998Q747.3923589999999 149.36322239999998 745.087371 152.12920799999998Q744.6263734 152.5902056 743.8772523 153.6274502Q743.1281312 154.66469479999998 742.0908866 155.93243819999998Q740.0163974 158.5831744 737.7114094 162.27115519999998Q736.443666 163.9998962 735.291172 165.72863719999998Q734.138678 167.4573782 732.986184 169.18611919999998Q731.7184406 170.9148602 730.8540701 172.5283518Q729.9896996 174.1418434 729.2982032 175.52483619999998Q725.6102224 181.1720568 727.1084646 182.3245508Q728.376208 183.246546 732.6404358 178.7518194Q734.714925 176.67733019999997 737.8266588 173.96896929999997Q740.9383926 171.2606084 744.8568722 167.91837579999998Q748.8906012 164.80664199999998 753.6158266 161.0610365Q758.341052 157.315431 763.7577738 153.16645259999999Q769.289745 149.01747419999998 775.3403385 144.58037229999996Q781.390932 140.14327039999998 788.0753972 135.41804499999998Q794.5293636 130.5775702 801.3290782 125.6794707Q808.1287928 120.7813712 815.1590062 115.7103976Q822.304469 110.63942399999999 829.4499318000001 105.39557629999999Q836.5953946 100.15172859999998 843.8561068 94.9655056Q851.2320684 89.77928259999999 858.2046571000001 84.65068429999998Q865.1772458 79.52208599999997 872.0922098 74.4511124Q885.5763896 64.42441459999998 898.0233248 54.743464999999986Q904.2467924 50.133489 909.6635142 45.7540118Q915.080236 41.374534600000004 919.8054614 37.45605499999999Q921.1884542 36.303561 922.571447 35.2086917Q923.9544398 34.113822400000004 925.3374326 32.96132840000001Q926.605176 31.924083800000005 927.8152947000001 30.656340400000005Q929.0254134 29.388597000000004 930.4084062 27.89035480000001Q931.6761496 26.507362 933.0591424 24.720996299999996Q934.4421352 22.93463059999999 935.9403774 20.975390800000014Q937.4386196 18.900901599999997 939.0521112 16.423039499999987Q940.6656028 13.945177399999977 942.5095932 10.83344360000001Q943.5468378 9.104702599999996 944.4112083 7.375961599999982Q945.2755788 5.647220599999969 946.0823246 4.033728999999994Q947.1195692 1.382992800000011 946.6585716 0.4609975999999847Q946.6585716 0.4609975999999847 946.5433222 0.3457482000000027V0.23049879999996392Q946.5433222 0.23049879999996392 946.4856975 0.23049879999996392Q946.4280728 0.23049879999996392 946.4280728 0.23049879999996392V0.11524939999998196Q946.3128234 0.11524939999998196 946.3128234 0.11524939999998196H946.197574Q946.197574 0.11524939999998196 946.1399493 0.11524939999998196Q946.0823246 0.11524939999998196 945.9670752 0.11524939999998196ZM328.6912888 112.71391319999998Q327.6540442 112.944412 325.9253032 115.01890119999999Q323.850814 117.6696374 321.2577025 119.62887719999999Q318.664591 121.58811699999998 314.9766102 123.54735679999999Q313.7088668 124.2388532 312.8444963 124.5846014Q311.9801258 124.9303496 309.9056366 125.96759419999998Q299.7636894 130.69281959999998 291.81148079999997 137.37728479999998Q283.85927219999996 144.06175 278.03917749999994 151.2648375Q272.21908279999997 158.46792499999998 268.7039761 164.80664199999998Q265.1888694 171.14535899999998 263.9787507 175.2367127Q262.76863199999997 179.32806639999998 264.0363754 179.789064Q264.3821236 179.90431339999998 264.8431212 179.789064Q265.30411879999997 179.789064 265.649867 179.6738146Q265.7651164 179.55856519999998 265.8803658 179.50094049999998Q265.9956152 179.4433158 265.9956152 179.4433158Q266.6871116 179.0975676 266.9176104 178.9823182Q267.0328598 178.86706879999997 267.1481092 178.80944409999998Q267.2633586 178.7518194 267.378608 178.63657Q267.83960559999997 178.06032299999998 268.8192255 176.61970549999998Q269.7988454 175.17908799999998 270.7208406 173.56559639999998Q272.1038334 170.9148602 272.9682039 169.41661799999997Q273.8325744 167.91837579999998 274.40882139999997 166.9387559Q274.9850684 165.959136 275.7918142 164.6913926Q283.2830252 152.82070439999998 295.038464 144.1769994Q295.3842122 143.94650059999998 295.7299604 143.6583771Q296.0757086 143.37025359999998 296.3062074 143.2550042Q297.919699 141.9872608 300.68568459999995 140.3161445Q303.45167019999997 138.64502819999998 305.1804112 137.723033Q309.5598884 135.5332944 310.8276318 136.34004019999998Q310.9428812 136.4552896 310.8276318 136.34004019999998Q310.9428812 136.4552896 311.05813059999997 136.570539L311.17338 136.68578839999998V136.8010378H311.2886294Q311.2886294 136.9162872 311.2886294 136.9162872Q311.2886294 137.146786 311.17338 137.37728479999998Q310.71238239999997 138.64502819999998 308.868392 140.604268Q307.4853992 141.9872608 305.9295323 143.1397548Q304.3736654 144.29224879999998 300.4551858 146.5972368Q296.8824544 148.7869754 294.9232146 150.16996819999997Q292.9639748 151.55296099999998 291.580982 153.05120319999997Q289.3912434 155.2409418 289.27599399999997 156.9696828Q288.93024579999997 159.8509178 293.1944736 159.5051696Q293.5402218 159.5051696 293.88597 159.44754489999997Q294.2317182 159.38992019999998 294.5774664 159.2746708Q295.038464 159.2746708 295.4418369 159.15942139999999Q295.84520979999996 159.04417199999997 296.3062074 158.9289226Q305.0651618 156.739184 312.2682493 150.86146459999998Q319.4713368 144.9837452 324.0813128 136.570539Q325.6948044 133.57405459999998 326.8472984 130.5775702Q328.1150418 127.4658364 328.9217876 124.2388532Q329.61328399999996 121.81861579999998 329.95903219999997 119.11025489999999Q330.30478039999997 116.401894 330.189531 115.1341506Q330.0742816 112.5986638 328.8065382 112.82916259999999V112.71391319999998Q328.5760394 112.71391319999998 328.6912888 112.71391319999998ZM1168.052669 112.71391319999998Q1167.0154244 112.944412 1165.4019328 115.01890119999999Q1163.2121942 117.6696374 1160.6767074 119.62887719999999Q1158.1412206 121.58811699999998 1154.3379904 123.54735679999999Q1153.1854964 124.2388532 1152.2635012 124.5846014Q1151.341506 124.9303496 1149.2670168 125.96759419999998Q1139.816566 130.34707139999998 1132.2677303 136.570539Q1124.7188946 142.7940066 1119.0140493 149.53609649999999Q1113.309204 156.27818639999998 1109.5635985 162.44402929999998Q1105.8179930000001 168.60987219999998 1104.1468767000001 173.0469741Q1102.4757604 177.484076 1102.936758 179.0975676Q1102.936758 179.21281699999997 1102.936758 179.21281699999997Q1102.936758 179.4433158 1102.936758 179.4433158Q1102.936758 179.4433158 1102.9943827000002 179.4433158Q1103.0520074 179.4433158 1103.0520074 179.4433158Q1103.0520074 179.55856519999998 1103.1096321 179.6161899Q1103.1672568 179.6738146 1103.2825062 179.789064Q1103.3977556 179.90431339999998 1103.2825062 179.789064Q1103.2825062 179.789064 1103.3977556 179.90431339999998H1103.513005Q1103.6282544 179.90431339999998 1103.8587532 179.90431339999998Q1104.089252 179.90431339999998 1104.3197508 179.90431339999998Q1104.7807484 179.789064 1105.1264966 179.6738146Q1105.241746 179.6738146 1105.2993707 179.6161899Q1105.3569954 179.55856519999998 1105.4722448 179.4433158Q1106.0484918 179.21281699999997 1106.2789906 178.9823182Q1106.39424 178.86706879999997 1106.5094894 178.80944409999998Q1106.6247388 178.7518194 1106.7399882 178.63657Q1107.3162352 178.1755724 1108.2958551 176.67733019999997Q1109.275475 175.17908799999998 1110.1974702 173.56559639999998Q1111.580463 171.03010959999997 1112.3872088 169.53186739999998Q1113.1939546 168.0336252 1113.8278263000002 166.9963806Q1114.461698 165.959136 1115.2684438000001 164.6913926Q1122.7596548 152.9359538 1134.5150936 144.29224879999998Q1134.7455924 144.06175 1135.0913406 143.77362649999998Q1135.4370888 143.485503 1135.782837 143.2550042Q1137.3963286 142.10251019999998 1140.1623142 140.37376919999997Q1142.9282998 138.64502819999998 1144.6570408 137.8382824Q1149.0365180000001 135.5332944 1150.189012 136.34004019999998Q1150.189012 136.34004019999998 1150.3042614 136.4552896Q1150.4195108 136.570539 1150.4195108 136.570539L1150.6500096 136.8010378V136.9162872Q1150.6500096 136.9162872 1150.6500096 136.9162872L1150.765259 137.03153659999998Q1150.765259 137.146786 1150.5347602 137.4925342Q1150.189012 138.7602776 1148.3450216 140.604268Q1146.9620288 141.9872608 1145.4061619 143.1397548Q1143.850295 144.29224879999998 1139.9318154 146.5972368Q1136.2438346 148.7869754 1134.3422194999998 150.2275929Q1132.4406044 151.6682104 1131.0576116 153.05120319999997Q1128.867873 155.2409418 1128.6373742 157.0849322Q1128.4068754 159.8509178 1132.5558538 159.620419Q1132.901602 159.5051696 1133.3049749 159.44754489999997Q1133.7083478 159.38992019999998 1134.054096 159.38992019999998Q1134.5150936 159.2746708 1134.9184665 159.2170461Q1135.3218394 159.15942139999999 1135.782837 159.04417199999997Q1144.5417914 156.85443339999998 1151.7448789 150.976714Q1158.9479664 145.0989946 1163.5579424 136.570539Q1165.0561846 133.80455339999997 1166.323928 130.69281959999998Q1167.5916714 127.4658364 1168.3984172 124.35410259999998Q1168.9746642 121.81861579999998 1169.3780371 119.16787959999998Q1169.78141 116.51714339999998 1169.6661606 115.24939999999998Q1169.4356618 112.71391319999998 1168.2831678 112.82916259999999Q1167.9374196 112.82916259999999 1168.052669 112.82916259999999ZM1438.4277614 124.12360379999998Q1437.8515144 124.2388532 1436.7566451 125.39134719999998Q1435.6617758 126.54384119999997 1434.3940324 128.7335798Q1432.8957902 130.808069 1431.2822986 133.45880519999997Q1429.668807 136.10954139999998 1428.0553154 138.9907764Q1426.5570732 141.9872608 1425.1164557000002 144.8684958Q1423.6758382 147.74973079999998 1422.4080948 150.51571639999997Q1421.2556008 153.6274502 1420.6217290999998 155.6443147Q1419.9878574 157.6611792 1419.9878574 158.81367319999998Q1419.9878574 160.196666 1420.7946032 161.2915353Q1421.601349 162.3864046 1422.9843418 163.4236492Q1426.211325 165.03714079999997 1430.5908022 167.91837579999998Q1432.7805408 169.53186739999998 1434.5669065 170.7419861Q1436.3532722 171.9521048 1437.8515144 173.2198482Q1440.8479988 175.52483619999998 1443.498735 175.52483619999998Q1445.3427254 175.52483619999998 1448.5697086 172.5283518Q1450.1832002 170.9148602 1451.7966918000002 169.1284945Q1453.4101834 167.34212879999998 1454.9084256 165.15239019999999Q1456.4066678 163.077901 1457.6744112000001 160.772913Q1458.9421546 158.46792499999998 1460.209898 156.0476876Q1461.1318932 153.6274502 1461.7657649 151.4377116Q1462.3996366000001 149.247973 1462.3996366000001 147.40398259999998Q1462.3996366000001 145.6752416 1461.7657649 143.8312512Q1461.1318932 141.9872608 1460.209898 139.79752219999997Q1459.2879028 137.8382824 1457.90491 135.8790426Q1456.5219172 133.91980279999999 1454.7931762 132.1910618Q1452.8339364 130.34707139999998 1450.9899460000001 128.90645389999997Q1449.1459556 127.4658364 1446.956217 126.198093Q1444.8817278 125.27609779999997 1442.8072386 124.69985079999998Q1440.7327494 124.12360379999998 1438.6582602 124.12360379999998Q1438.4277614 124.12360379999998 1438.4277614 124.12360379999998ZM1363.1699032 127.4658364Q1362.5936562 127.6963352 1361.9021598 128.7335798Q1360.7496658 129.77082439999998 1359.5971718 132.30631119999998Q1358.9056754 134.15030159999998 1357.8684308000002 136.0519167Q1356.8311862 137.95353179999998 1355.6786922000001 140.14327039999998Q1354.6414476 142.4482584 1353.5465783 144.75324639999997Q1352.451709 147.05823439999998 1351.4144644 149.4784718Q1350.2619704 152.0139586 1349.1671011 154.3765713Q1348.0722318 156.739184 1347.0349872 159.15942139999999Q1345.8824932 161.4644094 1344.8452486 163.654148Q1343.808004 165.8438866 1342.7707594 167.8031264Q1341.0420184 171.9521048 1339.8895244 174.9485892Q1338.7370304 178.1755724 1338.7370304 179.0975676Q1337.5845364 184.97528699999998 1336.7201659 190.21913469999998Q1335.8557954 195.4629824 1335.2795484 200.0729584Q1334.7033014 204.4524356 1334.1846791 208.601414Q1333.6660568 212.7503924 1333.0898098 216.4383732Q1332.7440616 220.0111046 1332.0525652000001 223.3533372Q1331.3610688 226.6955698 1330.6695724 229.80730359999998Q1330.0933254 232.91903739999998 1329.0560808 235.97314649999998Q1328.0188362 239.0272556 1326.7510928 242.02373999999998Q1325.4833494 244.90497499999998 1323.8122331 248.0167088Q1322.1411168 251.1284426 1319.9513782 254.2401764Q1317.9921384 257.2366608 1315.2261528 260.6365181Q1312.4601672000001 264.0363754 1309.0026852 267.83960559999997Q1308.4264382 268.4158526 1307.7925664999998 268.8768502Q1307.1586948 269.33784779999996 1306.5824478 269.7988454Q1305.0842056 270.4903418 1304.1622104 270.02934419999997Q1303.470714 270.02934419999997 1302.894467 270.4903418Q1298.2844910000001 269.68359599999997 1295.2880066 267.0328598Q1293.5592656000001 265.4193682 1292.0033987000002 263.80587660000003Q1290.4475318 262.192385 1289.1797884 260.463644Q1287.912045 258.734903 1286.7019263 257.17903609999996Q1285.4918076 255.6231692 1284.5698124 254.35542579999998Q1282.3800738 251.58944019999998 1280.6513328 251.58944019999998Q1279.26834 251.58944019999998 1277.539599 253.0876824Q1276.6176038 253.77917879999998 1275.3498604000001 254.87404809999998Q1274.082117 255.96891739999998 1272.8143736 257.2366608Q1271.4313808 258.5044042 1269.9331386 260.0602711Q1268.4348964 261.616138 1266.7061554 263.344879Q1265.0926638 265.1888694 1263.2486734 266.9176104Q1261.404683 268.6463514 1259.3301938 270.6055912Q1249.5339948 279.5950444 1239.2767982 287.4896283Q1229.0196016 295.3842122 1218.0709086 302.0686774Q1207.3527144 308.7531426 1196.2311473 314.630862Q1185.1095802 320.50858139999997 1173.6998896 325.3490562Q1162.0597002 330.30478039999997 1150.4771355 334.2808847Q1138.8945708 338.256989 1127.139132 341.4839722Q1115.3836932 344.595706 1103.8011285 347.01594339999997Q1092.2185638 349.4361808 1080.8088732 351.39542059999997Q1057.6437438 354.8529026 1035.7463578 356.46639419999997Q1024.6824154 357.27314 1014.19472 357.6188882Q1003.7070246 357.9646364 993.6803268 357.9646364Q993.1040798 357.9646364 992.7583316 357.9646364Q984.806123 357.9646364 977.7182849 357.7917623Q970.6304468 357.6188882 964.5222286 357.1578906Q958.1835116 356.696893 952.3057922 355.8901472Q946.4280728 355.0834014 941.011351 353.93090739999997Q935.5946292 353.0089122 930.3507815 351.74116879999997Q925.1069338 350.4734254 920.0359602 348.7446844Q915.080236 347.1311928 909.9516377 345.17195300000003Q904.8230394 343.2127132 899.2910682 340.90772519999996Q895.6030874 339.2942336 892.3761042 337.680742Q890.7626126 336.7587468 889.3219951 336.0096257Q887.8813776 335.2605046 886.3831354 334.5690082Q885.0001426 333.8775118 883.6747745 333.2436401Q882.3494064 332.6097684 880.7359148 332.14877079999997Q879.4681714 331.918272 877.7970551 331.6301485Q876.1259388 331.342025 874.3971978 331.342025Q872.6684568 331.342025 870.8820911 332.09114609999995Q869.0957254 332.84026719999997 867.1364856 334.3385094Q865.2924952 335.8367516 863.3908801 337.680742Q861.489265 339.5247324 859.760524 341.94496979999997Q857.9165336 344.1347084 856.2454173 346.4973211Q854.574301 348.8599338 852.9608094 351.39542059999997Q851.2320684 353.93090739999997 849.7914509 356.3511448Q848.3508333999999 358.7713822 847.08309 360.9611208Q845.1238502 364.3033534 843.2222351 368.221833Q841.32062 372.1403126 839.2461308 376.7502886Q837.1716416 381.2450152 835.0395277 385.8549912Q832.9074138 390.4649672 831.0634234 395.1901926Q828.9889342 400.03066739999997 827.2025685 404.58301869999997Q825.4162028 409.13536999999997 823.8027112 413.3995978Q822.0739702 417.89432439999996 820.6909774000001 421.63992989999997Q819.3079846 425.3855354 818.27074 428.38201979999997Q817.8097424 430.2260102 817.5216189 431.60900300000003Q817.2334954 432.9919958 817.2334954 433.913991Q817.2334954 435.1817344 817.5792436 435.642732H817.694493Q817.694493 435.642732 817.8097424 435.7579814Q818.1554906 435.8732308 818.0402412 435.8732308Q819.1927352 435.8732308 820.6909774 433.6834922Q821.3824738 432.41574879999996 822.3620937000001 430.5141337Q823.3417136 428.6125186 824.609457 426.0770318Q825.3009534 424.694039 826.1076992000001 422.8500486Q826.914445 421.0060582 827.8364402 418.93156899999997Q828.7584354 416.8570798 829.7380553 414.6097165Q830.7176752 412.3623532 831.8701692 409.9421158Q832.9074138 407.6371278 834.1751572000001 405.1592657Q835.4429006 402.6814036 836.710644 400.2611662Q837.863138 397.7256794 839.0732567 395.3630667Q840.2833754 393.000454 841.5511188 390.58021659999997Q842.5883634 389.3124732 843.5679833 387.52610749999997Q844.5476032 385.7397418 846.0458454 384.0110008Q847.3135888 381.9365116 848.5813322 380.0925212Q849.8490756 378.2485308 851.116819 376.6350392Q852.3845624 374.67579939999996 853.6523058 373.2351819Q854.9200492 371.7945644 856.1877926 370.526821Q858.1470324 368.1065836 859.5300252 368.1065836Q862.4112602 368.1065836 864.4857494 370.29632219999996Q866.5602386 372.0250632 869.3262242 375.136797Q870.709217 376.4045404 872.3227085999999 377.9604073Q873.9362002 379.5162742 875.89544 381.0145164Q879.6986702 384.2414996 885.3458908 386.7769864Q890.877862 388.966725 896.4674579 390.8683401Q902.0570538 392.7699552 907.589025 394.152948Q918.7682168 397.3799312 931.3304014 399.2239216Q937.7843678 400.03066739999997 944.6993318 400.7221638Q951.6142958 401.4136602 959.2207562 401.7594084Q966.5967178 402.220406 975.2980474999999 402.4509048Q983.9993772 402.6814036 993.6803268 402.6814036V402.56615419999997Q998.7513004 402.56615419999997 1004.9171433 402.39328009999997Q1011.0829862 402.220406 1017.9979502000001 401.7594084Q1025.0281636 401.067912 1032.634624 400.2611662Q1040.2410844 399.4544204 1048.4237918 398.0714276Q1056.7217486 396.8036842 1065.5383277 395.0173185Q1074.3549068 393.2309528 1083.5748588 391.1564636Q1092.9100602 388.966725 1102.4757604000001 386.08549Q1112.0414606 383.204255 1121.8376596 379.74677299999996Q1131.5186092 376.4045404 1141.3724329 372.4284361Q1151.2262566 368.4523318 1161.3682038 363.611857Q1171.3949016 358.8866316 1181.3063499999998 353.3546604Q1191.2177984 347.8226892 1200.898748 341.3687228Q1210.8101964 335.03000579999997 1220.3182719000001 327.76929359999997Q1229.8263474 320.50858139999997 1239.0462994 312.4411234Q1248.2662514 304.258416 1256.8523317 295.1537134Q1265.438412 286.0490108 1273.50587 275.9070636Q1273.9668676000001 275.2155672 1274.5431146 274.75456959999997Q1275.1193616 274.293572 1275.4651098 274.1783226Q1275.5803592 274.06307319999996 1275.810858 274.1783226Q1275.810858 274.1783226 1275.9261074 274.1783226Q1276.5023544 274.40882139999997 1277.0786014 275.9070636Q1278.3463448 278.4425504 1279.7293376 280.68991370000003Q1281.1123304 282.937277 1282.8410714 285.0117662Q1284.5698124 287.08625539999997 1286.2409287 288.93024579999997Q1287.912045 290.7742362 1289.7560354 292.157229Q1291.4847764 293.88597 1293.2711421 295.2113381Q1295.0575078 296.53670619999997 1296.7862488 297.6892002Q1300.3589802 299.9941882 1303.8164622 300.800934V300.57043519999996Q1303.8164622 300.6856846 1303.9317116 300.6856846Q1304.046961 300.6856846 1304.046961 300.6856846H1304.1622104Q1306.1214502 301.377181 1308.3111887999999 301.95342800000003Q1310.5009274 302.529675 1312.9211648 302.6449244Q1315.2261528 302.6449244 1317.5887655 302.6449244Q1319.9513782 302.6449244 1322.1411168 302.529675Q1326.520594 302.0686774 1330.6695724 300.91618339999997Q1334.9338002 299.8789388 1337.6997858 298.72644479999997Q1341.9640136 298.38069659999996 1346.2858661 297.8044496Q1350.6077186 297.2282026 1354.9871958 296.3062074Q1364.2071478 294.5774664 1373.3118504 291.2352338Q1377.9218264 289.62174219999997 1382.416553 287.54725299999996Q1386.9112796 285.4727638 1391.2907568 282.937277Q1399.703963 278.2120516 1407.4256728 271.2970876Q1413.0728934 265.9956152 1418.1438670000002 261.3280145Q1423.2148406000001 256.6604138 1427.5943178 252.2809366Q1431.8585456 248.0167088 1435.6617758 244.3863527Q1439.465006 240.7559966 1442.4614904 237.64426279999998Q1445.803723 234.53252899999998 1448.3968344999998 232.05466689999997Q1450.989946 229.5768048 1453.1796846 227.61756499999998Q1455.3694232 225.7735746 1457.2710382999999 224.5634559Q1459.1726534 223.3533372 1460.786145 222.77709019999998Q1461.8233896 222.43134199999997 1463.091133 221.56697149999997Q1464.3588764 220.702601 1465.6266198 219.08910939999998Q1466.8943632 217.70611659999997 1468.0468572 216.092625Q1469.1993512 214.4791334 1470.2365958 212.8656418Q1471.3890898 211.13690079999998 1472.1382109 209.52340919999997Q1472.887332 207.90991759999997 1473.6940778 206.296426Q1474.8465718 202.7236946 1474.8465718 200.8797042Q1474.8465718 199.0357138 1473.463579 198.6899656Q1472.6568332 198.3442174 1471.7924627 198.2865927Q1470.9280922 198.228968 1469.7755982 198.228968Q1468.853603 198.3442174 1467.7587337 198.5170915Q1466.6638644 198.6899656 1465.6266198 198.9204644Q1464.7046246 199.15096319999998 1463.8402541 199.2662126Q1462.9758836 199.381462 1462.1691378 199.381462Q1455.9456702 199.381462 1451.4509436 197.1917234Q1449.1459556 196.1544788 1446.7833429 195.0019848Q1444.4207302 193.84949079999998 1442.2309916 192.58174739999998Q1439.9260036 191.31400399999998 1437.5057662 190.21913469999998Q1435.0855288 189.12426539999998 1432.3195432 187.9717714Q1426.787572 186.0125316 1419.7573586 186.0125316Q1415.6083802 186.0125316 1411.80515 188.432769Q1409.8459102 189.70051239999998 1407.8290456999998 191.19875459999997Q1405.8121812 192.6969968 1403.737692 194.5409872Q1401.6632028 196.38497759999998 1399.8192124 198.3442174Q1397.975222 200.30345719999997 1396.1312316 202.262697Q1394.4024906 204.56768499999998 1392.9042484000001 206.41167539999998Q1391.4060062 208.25566579999997 1390.1382628000001 209.8691574Q1389.6772652 210.44540439999997 1389.331517 211.0792761Q1388.9857688 211.7131478 1388.75527 212.1741454Q1388.0637736 211.3673996 1387.1417784 210.44540439999997Q1386.1045338 209.29291039999998 1384.6639163 208.37091519999998Q1383.2232988 207.44892 1381.840306 206.6421742Q1378.8438216 205.4896802 1375.9625866 205.4896802Q1371.3526106 205.4896802 1365.9358888 208.1404164Q1363.2851526 209.63865859999999 1360.6344164 211.30977489999998Q1357.9836802 212.98089119999997 1355.4481934 214.940131Q1353.1432054 216.7841214 1350.9534668000001 218.8009859Q1348.7637282 220.8178504 1346.689239 222.77709019999998Q1344.7299992 224.8515794 1343.4046311000002 226.465071Q1342.079263 228.0785626 1341.1572678 229.1158072Q1338.621781 233.4952844 1337.469287 233.0342868H1337.3540376V232.91903739999998V232.803788Q1337.2387882 231.9970422 1338.9675292 228.88530839999999Q1339.3132774 228.0785626 1340.1200232 226.34982159999998Q1340.926769 224.62108059999997 1341.8487642 221.855095Q1343.0012582 219.3196082 1344.2113769 215.9197509Q1345.4214956 212.5198936 1346.689239 208.60141399999998Q1347.9569824 204.6829344 1349.2247258 200.3610819Q1350.4924692 196.03922939999998 1351.6449632000001 191.0835052Q1352.9127066 186.3582798 1353.8347018 181.4601803Q1354.756697 176.5620808 1355.4481934 171.6063566Q1355.909191 169.0708698 1356.6006874 165.2676396Q1357.2921838 161.4644094 1358.0989296 156.5086852Q1359.2514236 151.78345979999997 1360.6344164 146.13623919999998Q1362.0174092 140.48901859999998 1363.8613996 134.15030159999998Q1364.552896 130.69281959999998 1364.3223972 129.5403256Q1364.3223972 127.81158459999997 1363.5156514 127.58108579999998Q1363.400402 127.58108579999998 1363.400402 127.58108579999998Q1363.2851526 127.58108579999998 1363.2275279 127.58108579999998Q1363.1699032 127.58108579999998 1363.1699032 127.58108579999998ZM838.3241356 159.38992019999998Q837.1716416 159.620419 834.981903 164.3456444Q833.7141596 166.99638059999998 832.2159174000001 170.1657391Q830.7176752 173.33509759999998 828.9889342 176.79257959999998Q827.3754426 180.25006159999998 825.9348251 183.88041769999998Q824.4942076 187.51077379999998 822.9959654 191.19875459999997Q821.4977232 194.77148599999998 820.2299798 198.28659269999997Q818.9622364 201.8016994 818.0402412 205.2591814Q817.0029966 208.7166634 816.3115002 211.65552309999998Q815.6200038 214.5943828 815.5047544 217.245119Q814.3522604 227.61756499999998 813.5455145999999 237.12564049999997Q812.7387688 246.633716 811.932023 255.3926704Q811.2405266 264.26687419999996 810.6642796 272.2767075Q810.0880326 280.2865408 809.3965362 287.3167542Q808.8202892 294.6927158 808.1287928 301.08905749999997Q807.4372964 307.4853992 806.6305506 313.24786919999997Q805.2475578 324.3118116 802.9425698 332.7250178Q802.3663228 336.0672504 802.8273204 336.87399619999997Q802.8273204 336.87399619999997 802.9425698 336.9892456Q803.864565 337.104495 805.9390542 333.8775118Q808.2440422 330.8810274 811.0100278 325.9253032Q812.50827 323.3898164 814.1217616 320.1628332Q815.7352532 316.93585 817.118246 313.24786919999997Q818.6164882 309.5598884 819.9418563 305.2380359Q821.2672244 300.91618339999997 822.7654666 296.19095799999997Q824.03321 291.2352338 825.0704546 285.7032626Q826.1076992 280.1712914 826.6839462 273.9478238Q827.1449438 269.5683466 827.7211907999999 264.8431212Q828.2974378 260.1178958 828.8736848 254.9316728Q829.3346824 250.091198 829.79568 244.8473503Q830.2566776 239.60350259999998 830.8329246 234.53252899999998Q831.2939222 229.2310566 831.8701692 223.9295842Q832.4464162 218.6281118 833.0226632 213.5571382Q833.3684114 208.25566579999997 833.8870337000001 203.35756629999997Q834.405656 198.45946679999997 834.981903 193.84949079999998Q835.4429006 189.2395148 835.9038982 185.0329117Q836.3648958 180.8263086 837.0563922 177.02307839999997Q837.6326392 173.33509759999998 838.1512614999999 170.28098849999998Q838.6698838 167.2268794 839.015632 164.80664199999998Q840.0528766 160.65766359999998 838.9003826 159.620419Q838.7851332 159.5051696 838.7851332 159.38992019999998Q838.6698838 159.38992019999998 838.3241356 159.38992019999998ZM783.4654212 162.3864046V162.501654Q782.7739248 162.61690339999998 781.6214308 163.654148Q781.1604331999999 164.11514559999998 780.5841862 164.9218914Q780.0079392 165.72863719999998 779.4316922 166.65063239999998Q778.7401958 168.26412399999998 777.8758253000001 170.28098849999998Q777.0114548 172.29785299999998 776.0894595999999 174.60284099999998Q774.9369656 176.79257959999998 774.0149704 179.2704417Q773.0929752 181.74830379999997 772.17098 184.1685412Q771.018486 186.704028 770.0964908000001 189.2971395Q769.1744956 191.89025099999998 768.2525004 194.6562366Q767.1000064 197.1917234 766.3508853000001 199.6119608Q765.6017642 202.03219819999998 764.9102678 204.3371862Q764.103522 206.5269248 763.4120256 208.5437893Q762.7205292 210.56065379999998 762.374781 212.4046442Q761.9137833999999 214.01813579999998 761.5104105 215.28587919999998Q761.1070376 216.55362259999998 761.1070376 217.245119Q760.7612894 222.08559379999997 760.3579165 227.32944149999997Q759.9545436 232.57328919999998 759.7240448 237.99001099999998Q759.3782966 243.752481 758.9749237 249.22682749999998Q758.5715508 254.70117399999998 758.2258026 260.463644Q757.8800544 265.8803658 757.4766815 271.1818382Q757.0733086 276.4833106 756.4970616 281.66953359999997Q756.1513134 286.74050719999997 755.5174417000001 291.29285849999997Q754.88357 295.84520979999996 754.307323 299.64844Q753.9615748 301.1466822 753.5582019 302.7025491Q753.154829 304.258416 752.6938314 305.7566582Q752.1175843999999 307.3701498 751.1955892 308.868392Q750.273594 310.36663419999996 749.2363494 311.6343776Q748.0838554 313.1326198 746.7008625999999 314.22748909999996Q745.3178698 315.3223584 743.5891288 316.2443536Q741.9756372 316.93585 739.9587727 317.3968476Q737.9419082 317.8578452 735.6369202 317.8578452Q730.7964454 317.8578452 726.3017188 315.78335599999997Q724.1119802 314.630862 722.3256145 313.3054939Q720.5392488 311.9801258 719.2715054 310.36663419999996Q718.8105078 309.9056366 718.6952584 309.7903872Q718.2342608 309.0988908 717.8308879 308.1192709Q717.427515 307.139651 716.9665174 306.1024064Q716.5055198 304.4889148 716.1597716 302.8754232Q715.8140234 301.26193159999997 715.4682752 299.5331906Q715.2377764 297.5739508 714.8920282 295.67233569999996Q714.54628 293.7707206 714.4310306 291.6962314Q714.3157812 289.62174219999997 714.1429071 287.4320036Q713.970033 285.242265 713.970033 283.1677758Q713.970033 277.9815528 714.6615294 270.7208406Q714.7767788 267.0328598 715.2377764 263.0567555Q715.698774 259.0806512 716.1597716 254.8164234Q716.6207692 250.5521956 717.1393915000001 246.2303431Q717.6580138 241.9084906 718.2342608 237.29851459999998Q718.9257572 232.6885386 719.5596289 228.2514367Q720.1935006 223.81433479999998 720.7697476 219.55010699999997Q721.5764934 215.28587919999998 722.2679898 211.1945255Q722.9594862 207.10317179999998 723.766232 203.29994159999998Q724.342479 199.381462 725.0339754 196.0392294Q725.7254718 192.6969968 726.5322176 189.70051239999998Q726.647467 188.5480184 726.7627164 187.68364789999998Q726.8779658 186.81927739999998 726.647467 186.3582798Q726.5322176 185.551534 726.07122 185.2057858Q726.07122 185.2057858 725.9559706 185.0905364H725.8407212Q725.6102224 185.0905364 725.6102224 185.0905364Q725.0339754 185.2057858 723.8814814 186.3582798Q723.4204837999999 186.81927739999998 722.9018615 187.74127259999997Q722.3832392 188.66326779999997 721.8069922 189.70051239999998Q720.6544982 192.0055004 719.5020042 194.77148599999998Q718.3495101999999 197.5374716 716.9665174 200.76445479999998Q715.698774 203.87618859999998 714.3157812 207.21842119999997Q712.9327884 210.56065379999998 711.665045 213.787637Q710.3973016 217.1298696 709.2448076000001 220.3568528Q708.0923136 223.583836 707.1703184 226.5803204Q706.3635726 229.4615554 705.7873256 231.651294Q705.2110786 233.8410326 705.0958292 235.2240254Q704.5195822 238.566258 704.0009599 242.36948819999998Q703.4823376 246.17271839999998 703.02134 250.2064474Q702.445093 254.35542579999998 701.9840954 258.6196536Q701.5230978 262.8838814 700.8316014 267.378608Q700.3706038 271.7580852 699.9096062 276.1375624Q699.4486086 280.5170396 698.987611 284.8965168Q698.6418628 289.27599399999997 698.2384899 293.1944736Q697.835117 297.1129532 697.4893688 300.800934Q697.1436206 304.6041642 696.8554971 307.7735227Q696.5673736 310.9428812 696.4521242 313.478368Q696.2216254 316.1291042 696.106376 317.91546989999995Q695.9911266 319.7018356 695.9911266 320.6238308Q695.9911266 324.3118116 695.8758772 327.3659207Q695.7606278 330.4200298 695.530129 332.9555166Q695.4148796 335.2605046 695.0115066999999 337.3349938Q694.6081338 339.40948299999997 694.0318868 341.138224Q692.7641434 344.9414542 690.920153 347.3616916Q688.8456638 350.0124278 685.8491794 353.0089122Q683.7746902 354.7376532 681.9306998 355.42914959999996Q681.2392034 355.6596484 680.4900823 355.77489779999996Q679.7409612 355.8901472 678.9342154 355.8901472Q677.4359732 355.8901472 675.1309851999999 355.1986508Q674.20899 354.8529026 672.9988713 354.5071544Q671.7887526 354.1614062 670.5210092 353.815658Q669.3685152 353.3546604 667.9855224 353.0089122Q666.6025296 352.663164 665.3347861999999 352.3174158Q663.9517934 352.08691699999997 662.2806771 351.9716676Q660.6095607999999 351.8564182 658.9960692 351.8564182Q655.6538366 351.8564182 652.1963546 353.4699098Q648.6236232 355.6596484 645.39664 358.1951352Q643.7831484 359.4628786 642.2272815 360.73062200000004Q640.6714146 361.9983654 639.2884218 363.2661088Q637.7901796 364.6491016 636.6953103000001 365.6863462Q635.600441 366.7235908 634.6784458 367.645586Q632.8344554 369.4895764 630.6447168 371.103068Q628.4549782 372.7165596 625.9194914 373.984303Q623.499254 375.2520464 620.8485178 376.00116749999995Q618.1977816 376.7502886 615.431796 377.0960368Q612.550561 377.441785 609.5540766 377.441785Q606.5575922 377.441785 603.4458584 376.865538Q600.5646234 376.5197898 597.5105143 375.4249205Q594.4564052 374.33005119999996 591.5751702 372.4860608Q591.229422 372.255562 590.8836738 372.255562Q586.2736978 368.79807999999997 582.7009664 364.8796004Q581.0874748 362.6898618 579.704482 360.2696244Q578.3214892 357.849387 577.1689952 354.968152Q576.1317506 352.2021664 575.2673801000001 348.9751832Q574.4030096 345.7482 573.942012 342.0602192Q573.4810144 338.1417396 573.2505156 333.7622624Q573.0200168 329.3827852 573.0200168 324.5423104Q573.0200168 320.85432959999997 573.1928909000001 316.7629759Q573.365765 312.6716222 573.7115132 308.17689559999997Q574.2877602 303.5669196 574.8640072000001 298.7840695Q575.4402542 294.00121939999997 576.1317506 288.93024579999997Q576.9384964 283.9745216 577.6876175 279.0187974Q578.4367386 274.06307319999996 579.3587338 268.8768502Q580.280729 263.8058766 581.0298501 259.0230265Q581.7789712 254.2401764 582.4704676 249.97594859999998Q583.2772134 245.481222 583.9687097999999 241.5051177Q584.6602062 237.5290134 585.0059544 233.8410326Q586.043199 227.041318 586.3889472 222.89233959999999Q586.3889472 220.93309979999998 586.043199 220.35685279999998Q585.8127002 220.24160339999997 585.9279496 220.35685279999998V220.24160339999997H585.8127002H585.6974508Q585.5822014 220.126354 585.466952 220.126354Q584.5449568 220.126354 583.5077122 222.08559379999997Q582.4704676 224.5058312 581.3179736 228.19381199999998Q580.5112278 230.03780239999998 579.8197314 231.99704219999998Q579.128235 233.956282 578.3214892 235.9155218Q577.5147434 238.1052604 576.5927482 240.35262369999998Q575.670753 242.599987 574.9792566 244.7897256Q574.0572614 246.9794642 573.1928909000001 249.11157809999997Q572.3285204 251.24369199999998 571.5217746 253.3181812Q570.8302782 255.277421 570.0811570999999 257.1214114Q569.332036 258.9654018 568.6405396 260.8093922Q568.0642926 262.42288379999997 567.5456703 263.7482519Q567.027048 265.07362 566.6812998 266.226114Q565.7593046 271.8733346 564.8373094 278.0968022Q563.9153142 284.3202698 562.7628202 291.004735Q561.9560744 298.03494839999996 560.9764545 304.9499124Q559.9968345999999 311.8648764 559.1900888 318.7798404Q558.383343 325.8100538 557.6918466 332.3792696Q557.0003502 338.9484854 556.4241032 345.171953Q555.9631056 351.6259194 555.7326068 356.9273918Q555.502108 362.2288642 555.502108 366.6083414Q555.502108 374.0995524 556.078355 380.4958941Q556.654602 386.8922358 558.1528442 392.424207Q559.4205876 397.7256794 561.264578 402.220406Q563.1085684 406.7151326 565.4135564 410.1726146Q570.2540312 417.3180774 576.9384964 420.66031Q580.1654796 422.2738016 583.8534604 423.19579680000004Q587.5414412 424.117792 591.5751702 424.117792V423.8872932Q594.8021534 423.8872932 597.9138872 423.1957968Q601.025621 422.5043004 604.0221054 421.236557Q609.5540766 418.58582079999996 614.9707984 413.86059539999997Q617.736784 411.3251086 620.4451449 408.32862420000004Q623.1535058 405.3321398 625.9194914 401.7594084Q628.685477 398.186677 631.6819614 394.0376986Q634.6784458 389.88872019999997 637.7901796 385.16349479999997Q640.9019134 381.0145164 644.244146 380.2077706Q645.8576376 379.6315236 647.6440033 379.5738989Q649.430369 379.5162742 651.2743594 379.74677299999996Q653.1183498 380.09252119999996 655.0775896 380.5535188Q657.0368294 381.0145164 658.9960692 381.7060128Q661.1858078 382.2822598 663.3179216999999 382.628008Q665.4500356 382.9737562 667.7550236 382.9737562Q669.7142634 382.9737562 671.6735032 382.1670104Q673.5174936 381.8212622 675.8224816 380.2077706Q677.7817214 379.05527659999996 680.3172082 377.0960368Q681.5849516 375.9435428 682.9679444 374.7910488Q684.3509372 373.6385548 685.8491794 372.1403126Q686.7711746 371.33356679999997 687.6355451 370.4115716Q688.4999156 369.4895764 689.4219108 368.5675812Q691.6116494 366.7235908 693.4556398 364.5338522Q694.3776349999999 363.4966076 695.4148796 362.2288642Q696.4521242 360.9611208 697.25887 359.9238762Q698.1808652 358.8866316 698.987611 357.849387Q699.7943568 356.81214239999997 700.4858532 355.6596484Q701.5230978 357.849387 703.3670881999999 359.6357527Q705.2110786 361.4221184 707.631316 362.9203606Q710.1668028 364.188104 713.0480378 364.9372251Q715.9292728 365.6863462 719.2715054 365.6863462V365.57109679999996Q726.9932152 365.57109679999996 734.138678 359.4628786Q737.7114094 356.5816436 741.2265161 352.3750405Q744.7416228 348.1684374 747.968606 342.5212168Q751.0803398 336.7587468 754.1344489 329.9590322Q757.188558 323.1593176 760.1850424 314.8613608Q763.0662774 306.9091522 765.832263 297.57395080000003Q768.5982486 288.2387494 771.1337354 277.8663034Q772.2862294 273.8325744 773.0353505 269.4530972Q773.7844716 265.07362 774.5912174 260.57889339999997Q775.052215 255.853668 775.628462 251.0708179Q776.204709 246.2879678 776.6657066 241.3322436Q777.4724524 231.1902964 778.1639488 221.0483492Q778.509697 215.9773756 778.9130699 211.0792761Q779.3164428 206.1811766 779.662191 201.4559512Q780.0079392 196.61547639999998 780.5265615000001 192.06312509999998Q781.0451838 187.51077379999998 781.6214308 183.13129659999998Q782.0824284 178.7518194 782.8315494999999 174.8909645Q783.5806706 171.03010959999997 784.272167 167.4573782Q784.6179152 166.1896348 784.6755399 165.2676396Q784.7331646 164.3456444 784.7331646 163.53889859999998Q784.3874164 162.3864046 783.5806706 162.3864046H783.4654212Q783.4654212 162.3864046 783.4654212 162.3864046ZM307.2549004 187.7412726Q306.2176558 187.85652199999998 304.258416 189.585263Q299.64844 193.9647402 292.157229 196.7307258Q290.8894856 197.1917234 290.0251151 197.4222222Q289.1607446 197.65272099999999 286.8557566 198.3442174Q276.2528118 201.8016994 267.4362327 207.44892Q258.6196536 213.09614059999998 251.8775637 219.55010699999997Q245.1354738 226.00407339999998 240.8136213 231.82416809999998Q236.4917688 237.64426279999998 234.8206525 241.50511769999997Q233.1495362 245.3659726 234.41727960000003 245.8269702Q235.10877599999998 246.057469 235.685023 246.057469Q235.91552180000002 245.9422196 236.14602059999999 245.9422196Q236.3765194 245.8269702 236.60701820000003 245.8269702Q236.60701820000003 245.8269702 237.0680158 245.59647139999998Q237.29851459999998 245.481222 237.47138869999998 245.3659726Q237.64426279999998 245.25072319999998 237.8747616 245.0202244Q238.566258 244.6744762 239.718752 243.34910809999997Q240.87124599999999 242.02373999999998 241.9084906 240.52549779999998Q243.6372316 238.1052604 244.6744762 236.7222676Q245.71172079999997 235.3392748 246.4608419 234.4172796Q247.20996300000002 233.4952844 248.13195819999999 232.34279039999998Q257.1214114 221.62459619999998 269.7988454 214.4791334Q270.7208406 214.1333852 271.1818382 213.787637Q273.0258286 212.7503924 275.96468830000003 211.4250243Q278.903548 210.09965619999997 280.7475384 209.4081598Q285.1270156 207.90991759999997 286.2795096 208.7166634Q286.39475899999996 208.7166634 286.39475899999996 208.7166634Q286.5100084 208.8319128 286.6252578 209.0624116L286.74050719999997 209.177661Q286.8557566 209.29291039999998 286.8557566 209.29291039999998V209.4081598Q286.8557566 209.5234092 286.8557566 209.5234092Q286.8557566 209.63865859999999 286.74050719999997 209.8691574Q286.1642602 211.13690079999998 284.089771 212.7503924Q282.5915288 214.01813579999998 280.8627878 214.8825063Q279.13404679999996 215.7468768 274.9850684 217.5908672Q271.0665888 219.3196082 268.93447489999994 220.4721022Q266.80236099999996 221.62459619999998 265.30411879999997 222.77709019999998Q262.8838814 224.73633 262.5381332 226.465071Q261.7313874 229.69205419999997 267.49385739999997 229.4615554Q268.4158526 229.4615554 269.2225984 229.34630599999997Q272.1038334 229.1158072 275.10031779999997 228.19381199999998Q285.242265 225.4278264 293.4825971 217.7637413Q301.7229292 210.09965619999997 306.1024064 199.15096319999998Q307.0244016 196.7307258 307.715898 194.1376143Q308.4073944 191.54450279999998 308.52264379999997 190.2767594Q308.6378932 189.00901599999997 308.292145 188.31751959999997Q308.292145 188.31751959999997 308.292145 188.25989489999998Q308.292145 188.2022702 308.17689559999997 188.2022702Q308.17689559999997 188.0870208 308.11927089999995 188.02939609999999Q308.0616462 187.9717714 307.9463968 187.85652199999998Q307.83114739999996 187.7412726 307.2549004 187.7412726ZM1146.73153 187.7412726Q1146.2705324 187.85652199999998 1145.8095348 188.0870208Q1145.6942854 188.2022702 1145.579036 188.25989489999998Q1145.4637866 188.31751959999997 1145.4637866 188.31751959999997Q1145.002789 188.5480184 1144.5994160999999 188.8937666Q1144.1960432 189.2395148 1143.7350456 189.585263Q1139.1250696 193.9647402 1131.6338586 196.7307258Q1130.3661152 197.1917234 1129.44412 197.4222222Q1128.5221248 197.65272099999999 1126.3323862 198.3442174Q1115.7294414 201.8016994 1106.8552376 207.44892Q1097.9810338 213.09614059999998 1091.2965686 219.55010699999997Q1084.6121034 226.00407339999998 1080.2902509 231.82416809999998Q1075.9683984 237.64426279999998 1074.2972821 241.5627424Q1072.6261658 245.481222 1073.8939092 245.8269702Q1074.5854056 246.057469 1075.1616526 246.057469Q1075.3921514 245.9422196 1075.5074008 245.9422196Q1075.853149 245.9422196 1075.9683984 245.8269702Q1075.9683984 245.8269702 1076.429396 245.59647139999998Q1076.7751442 245.481222 1077.3513912 245.0202244Q1077.9276382 244.6744762 1079.1377569 243.34910809999997Q1080.3478756 242.02373999999998 1081.3851202 240.52549779999998Q1083.1138612 238.1052604 1084.1511058 236.7222676Q1085.1883504 235.3392748 1085.9374715 234.4172796Q1086.6865926 233.4952844 1087.6085878 232.34279039999998Q1096.598041 221.62459619999998 1109.275475 214.5943828Q1110.1974702 214.1333852 1110.6584678 213.787637Q1112.5024582 212.7503924 1115.4413179 211.4250243Q1118.3801776 210.09965619999997 1120.224168 209.5234092Q1125.2951416 207.6794188 1126.1018874 209.0624116H1126.2171368V209.177661Q1126.2171368 209.29291039999998 1126.2171368 209.29291039999998H1126.3323862V209.4081598Q1126.3323862 209.4081598 1126.3323862 209.4081598Q1126.3323862 209.63865859999999 1126.2171368 209.8691574Q1125.6408898 211.13690079999998 1123.5664006 212.7503924Q1121.952909 213.9028864 1120.2241680000002 214.8248816Q1118.495427 215.7468768 1114.461698 217.5908672Q1110.5432184000001 219.3196082 1108.4111045 220.4721022Q1106.2789906 221.62459619999998 1104.7807484 222.77709019999998Q1102.360511 224.73633 1101.8995134 226.465071Q1101.0927676000001 230.1530518 1108.699228 229.34630599999997Q1116.6514366 228.4243108 1123.7968993999998 224.3905818Q1130.9423622 220.35685279999998 1136.5319580999999 213.9028864Q1142.121554 207.44892 1145.4637866 199.0357138Q1146.5010312 196.7307258 1147.1925276 194.1376143Q1147.884024 191.54450279999998 1147.9992734 190.2767594Q1148.2297722 187.6260232 1146.73153 187.7412726ZM1412.957644 204.6829344Q1415.838879 204.6829344 1419.872608 206.1811766Q1421.7165984 207.10317179999998 1423.6758382 208.02516699999998Q1425.635078 208.94716219999998 1427.5943178 210.09965619999997Q1429.7840564 211.3673996 1431.8585456 212.4622689Q1433.9330348 213.5571382 1436.1227734 214.7096322Q1440.041253 217.1298696 1443.7292338 218.6281118Q1443.0377374 219.3196082 1441.4242457999999 220.7602257Q1439.8107542 222.2008432 1437.6210156 224.5058312Q1435.2007782 226.465071 1432.7805408 228.770059Q1430.3603034 231.07504699999998 1427.5943178 233.380035Q1424.7130828 236.0307712 1421.9470972 238.566258Q1419.1811116 241.1017448 1416.415126 243.752481Q1413.6491404 246.057469 1411.4594018 248.1895829Q1409.2696632 250.32169679999998 1407.4256728 251.9351884Q1400.5107088 258.04340659999997 1394.0567424 262.94150609999997Q1387.602776 267.83960559999997 1381.6098072 271.412337Q1375.6168384 275.10031779999997 1370.315366 277.6934293Q1365.0138936 280.2865408 1360.4039176 281.784783Q1361.0954140000001 281.208536 1362.1902833 280.11366669999995Q1363.2851526 279.0187974 1364.7833948 277.5205552Q1366.1663876 276.1375624 1367.5493804 274.5240708Q1368.9323732 272.9105792 1370.4306154 271.1818382Q1371.8136082 269.4530972 1373.1389763000002 267.7243562Q1374.4643444 265.9956152 1375.7320878 264.3821236Q1376.9998312 262.5381332 1378.0947005 261.09751570000003Q1379.1895698 259.6568982 1379.8810662 258.2739054Q1380.4573132 257.2366608 1381.3216837 255.68079389999997Q1382.1860542 254.12492699999999 1383.1080494 251.9351884Q1384.145294 249.97594859999998 1385.2401633 247.61333589999998Q1386.3350326 245.25072319999998 1387.3722772 242.71523639999998Q1388.5247712 240.17974959999998 1389.4467664 237.47138869999998Q1390.3687616 234.76302779999997 1391.060258 231.9970422Q1392.5585002 226.465071 1392.5585002 221.9703444Q1392.5585002 218.6281118 1391.060258 215.63162739999999Q1391.060258 215.63162739999999 1390.9450086 215.4011286Q1391.4060062 215.28587919999998 1392.0975026 215.1130051Q1392.788999 214.940131 1393.4804954 214.4791334Q1394.6329894 213.67238759999998 1395.7278587 212.92326649999998Q1396.822728 212.1741454 1397.975222 211.2521502Q1399.0124666 210.56065379999998 1400.2225853 209.6962833Q1401.432704 208.8319128 1402.585198 208.1404164Q1403.8529414 207.3336706 1405.0054354 206.6997989Q1406.1579294 206.06592719999998 1407.4256728 205.6049296Q1408.6934162 205.143932 1410.1340337000001 204.9134332Q1411.5746512 204.6829344 1412.957644 204.6829344ZM638.3664266 224.0448336Q637.6749302 224.27533239999997 636.5800609 225.3702017Q635.4851916 226.465071 634.3326976 228.6548096Q632.719206 230.72929879999998 631.1633391 233.380035Q629.6074722 236.0307712 627.9939806 238.9120062Q626.380489 241.9084906 624.9974962 244.7897256Q623.6145034 247.6709606 622.34676 250.5521956Q621.194266 253.54868 620.5603943 255.62316919999998Q619.9265226 257.69765839999997 619.9265226 258.734903Q619.9265226 260.23314519999997 620.6756437 261.2703898Q621.4247648 262.3076344 622.923007 263.4601284Q626.0347408 264.95837059999997 630.5294674 267.83960559999997Q631.4514626 268.531102 632.3734578 269.1649737Q633.295453 269.7988454 634.1021988 270.37509239999997Q633.4107024 270.6055912 632.3158331 271.70046049999996Q631.2209638 272.7953298 630.0684698 274.9850684Q628.5702276 277.0595576 626.956736 279.6526691Q625.3432444 282.2457806 623.7297528 285.1270156Q622.2315106 288.1235 620.7908931 291.004735Q619.3502756 293.88597 618.0825322 296.767205Q616.9300382 299.7636894 616.3537911999999 301.8381786Q615.7775442 303.9126678 615.7775442 305.0651618Q615.7775442 306.4481546 616.5266653 307.48539919999996Q617.2757864 308.52264379999997 618.6587792 309.6751378Q622.1162611999999 311.4038788 626.380489 314.054615Q628.5702276 315.6681066 630.3565933 316.8782253Q632.142959 318.088344 633.5259518 319.3560874Q636.5224362 321.6610754 639.1731724 321.6610754Q641.0171628 321.6610754 644.244146 318.7798404Q645.8576376 317.1663488 647.4711292 315.3799831Q649.0846208 313.59361739999997 650.6981124 311.4038788Q652.0811052 309.3293896 653.3488486 306.9667769Q654.616592 304.6041642 655.8843353999999 302.2991762Q656.92158 299.8789388 657.4978269999999 297.6892002Q658.074074 295.4994616 658.074074 293.5402218Q658.074074 291.81148079999997 657.4978269999999 290.0251151Q656.92158 288.2387494 655.8843353999999 285.9337614Q654.9623402 284.089771 653.5793474 282.0729065Q652.1963546 280.056042 650.4676136 278.327301Q649.3151196 277.29005639999997 648.1626256 276.36806119999994Q647.0101316 275.446066 645.8576376 274.5240708Q646.8948822 273.9478238 648.5083738 272.56483099999997Q650.1218654 270.9513394 651.6777323 269.1649737Q653.2335992 267.378608 654.8470908 265.07362Q656.2300836 262.9991308 657.5554517 260.6941428Q658.8808198 258.3891548 660.1485632 255.96891739999998Q661.0705584 253.66392939999997 661.6468054 251.41656609999998Q662.2230524 249.1692028 662.2230524 247.3252124Q662.2230524 245.59647139999998 661.6468054 243.752481Q661.0705584 241.9084906 660.1485632 239.718752Q659.226568 237.8747616 657.7859505 235.8578971Q656.345333 233.8410326 654.616592 232.1122916Q652.7726016 230.38355059999998 650.9286112 228.94293309999998Q649.0846208 227.50231559999997 646.7796328 226.2345722Q644.7051436 225.1973276 642.6882791 224.6210806Q640.6714146 224.0448336 638.5969254 224.0448336Q638.3664266 224.0448336 638.3664266 224.0448336ZM929.3711616 227.61756499999998Q928.333917 227.84806379999998 926.1441784 230.6140494Q924.876435 232.22754099999997 923.6663163000001 233.956282Q922.4561976 235.685023 921.0732048 237.5290134Q919.690212 239.83400139999998 918.2495945000001 241.9084906Q916.808977 243.98297979999998 915.5412336 245.8269702Q914.1582408 248.0167088 913.1786208999999 249.514951Q912.199001 251.0131932 911.622754 251.9351884Q910.9312576 250.667445 909.8363883 249.3997016Q908.741519 248.13195819999999 907.3585262 246.633716Q905.7450346 245.25072319999998 904.131543 243.86773039999997Q902.5180514 242.4847376 901.0198092 241.2169942Q899.2910682 239.9492508 897.6775766000001 238.9120062Q896.064085 237.8747616 894.4505934 236.95276639999997Q890.7626126 235.2240254 888.9186222 235.2240254Q888.3423752 235.2240254 887.2475059000001 236.4917688Q886.1526366 237.7595122 884.3086462 240.294999Q882.5799052 242.8304858 880.7935395 245.6540961Q879.0071738 248.4777064 876.9326846 251.3589414Q875.0886942 254.4706752 873.4175779 257.4671596Q871.7464616 260.463644 870.3634688 263.344879Q867.3669844 268.99209959999996 867.3669844 270.1445936Q867.3669844 271.2970876 868.404229 272.2767075Q869.4414736 273.2563274 870.9397158 274.1783226Q872.6684568 275.10031779999997 874.5700718999999 276.4833106Q876.471687 277.8663034 878.3156774 279.2492962Q879.5834208 280.1712914 881.1392877000001 281.3814101Q882.6951546 282.5915288 884.3086462 283.85927219999996Q887.6508788 286.8557566 889.9558668 286.8557566Q890.7626126 286.8557566 891.7998572 286.2795096Q892.8371018 285.7032626 894.2200946 284.7812674Q895.3725886 283.7440228 896.6979567 282.36103Q898.0233248 280.9780372 899.521567 279.2492962Q900.7893104 277.6358046 902.1723032 275.8494389Q903.555296 274.06307319999996 904.9382888 271.8733346Q906.436531 269.7988454 907.6466496999999 267.8972303Q908.8567684 265.9956152 910.1245118 264.26687419999996Q914.2734902 266.802361 917.2699746 269.4530972Q918.8834662 270.7208406 920.3240837000001 271.98858399999995Q921.7647012 273.2563274 923.0324446 274.1783226Q924.0696892 275.446066 925.2798078999999 276.36806119999994Q926.4899266 277.29005639999997 927.4119218 277.9815528Q929.1406628 279.47979499999997 930.9846532 279.47979499999997Q932.5981448 279.47979499999997 936.0556268 276.2528118Q937.8996172 274.869819 939.5707335 272.9682039Q941.2418498 271.0665888 943.0858402 268.6463514Q944.8145812 266.4566128 946.2551986999999 263.9787507Q947.6958162 261.5008886 948.9635596 258.9654018Q951.7295452 253.77917879999998 951.7295452 249.63020039999998Q951.7295452 247.6709606 951.1532982 245.8845949Q950.5770512 244.0982292 949.4245572 242.2542388Q948.0415644 240.17974959999998 946.5433221999999 238.39338389999998Q945.04508 236.60701819999997 943.316339 234.9935266Q941.587598 233.380035 939.6283582 232.05466689999997Q937.6691184 230.72929879999998 935.9403774 229.69205419999997Q934.096387 228.770059 932.5405201000001 228.19381199999998Q930.9846532 227.61756499999998 929.6016604 227.61756499999998Q929.3711616 227.61756499999998 929.3711616 227.61756499999998ZM1360.4039176 233.7257832Q1362.5936562 233.7257832 1364.6105207 233.89865729999997Q1366.6273852 234.07153139999997 1368.3561262 234.41727959999997Q1370.0848672 234.76302779999997 1371.6407341 235.3392748Q1373.196601 235.9155218 1374.4643444 236.60701819999997Q1377.1150806 237.7595122 1378.382824 239.14250499999997Q1379.8810662 240.0645002 1379.8810662 241.2169942Q1379.8810662 242.02373999999998 1379.1895698 243.11860929999997Q1378.4980734 244.21347859999997 1377.23033 245.8269702Q1375.7320878 247.3252124 1373.8304727 249.11157809999997Q1371.9288576 250.89794379999998 1369.3933708 252.7419342Q1366.9731334 254.70117399999998 1364.2071478 256.6027891Q1361.4411622 258.5044042 1358.214179 260.463644Q1354.8719464 262.5381332 1351.4144644 264.2092495Q1347.9569824 265.8803658 1344.2690016 267.378608Q1340.4657714 268.7616008 1336.6049165 269.8564701Q1332.7440616 270.9513394 1328.7103326 271.6428358Q1324.6766036 272.4495816 1320.6428746 272.4495816Q1316.6091456 272.4495816 1312.5754166 271.988584Q1315.1109034 268.8768502 1318.0497631 265.5346176Q1320.9886228 262.192385 1323.9851072 258.734903Q1327.2120904 255.277421 1330.4390736 252.2233119Q1333.6660568 249.1692028 1337.0082894 246.40321719999997Q1340.1200232 243.6372316 1343.2893817 241.3898683Q1346.4587402 239.14250499999997 1349.4552246 237.29851459999998Q1355.6786922000001 233.7257832 1360.4039176 233.7257832ZM528.8794966 270.1445936Q528.0727508 270.259843 526.8050074 271.412337Q525.8830121999999 272.1038334 524.5000193999999 273.4292015Q523.1170266 274.75456959999997 521.5035349999999 276.7138094Q520.6967892 277.8663034 519.5442952000001 279.13404679999996Q518.3918012 280.4017902 517.1240578 281.784783Q515.8563144 283.2830252 514.2428228 284.6083933Q512.6293312 285.9337614 510.9005902 287.4320036Q509.05659979999996 288.699747 507.21260939999996 290.0827398Q505.36861899999997 291.46573259999997 503.4093792 292.733476Q501.4501394 294.2317182 499.2604008 295.3842122Q497.0706622 296.53670619999997 494.8809236 297.6892002Q479.3222546 305.29566059999996 462.6687163 311.80725169999994Q446.015178 318.31884279999997 428.151521 323.7355646Q410.1726146 329.2675358 391.1564636 333.7622624Q372.1403126 338.256989 351.8564182 341.714471Q331.80302259999996 345.2872024 310.53950829999997 347.9379386Q289.27599399999997 350.5886748 267.0328598 352.3174158Q244.90497499999998 353.93090739999997 221.7974703 354.7952779Q198.6899656 355.6596484 174.7180904 355.6596484Q134.95704740000002 355.6596484 105.453201 353.4699098Q91.047026 352.5479146 78.6577155 351.1649218Q66.268405 349.781929 56.24170719999999 348.1684374Q46.2150094 346.4396964 38.2051761 344.4804566Q30.1953428 342.5212168 24.087124600000003 340.3314782Q12.101187 336.18249979999996 7.030213400000001 331.80302259999996Q5.76247 330.8810274 4.8404748 330.189531Q3.9184795999999995 329.4980346 3.1117337999999997 329.1522864Q2.1897386 327.9997924 0.9219951999999996 328.8065382Q0.5762469999999986 329.2675358 0.3457481999999992 330.0742816Q0.11524939999999972 330.8810274 0.0 332.0335214V338.9484854Q0.0 351.04967239999996 1.4982422 359.578128Q2.1897386 363.72710639999997 3.2846079 367.18458839999994Q4.3794772 370.64207039999997 6.1082182 373.408056Q9.450450799999999 379.05527659999996 14.406175000000001 382.2822598Q16.9416618 384.12625019999996 19.9957709 385.5668677Q23.04988 387.0074852 26.507362 388.390478Q30.7715898 389.7734708 36.188311600000006 391.09883890000003Q41.6050334 392.424207 47.9437504 393.4614516Q54.512966199999994 394.729195 61.8889278 395.6511902Q69.2648894 396.5731854 77.4475968 397.3799312Q85.5150548 398.0714276 94.2740092 398.5900499Q103.0329636 399.1086722 112.5986638 399.5696698Q122.04911460000001 399.915418 131.7876889 400.20354150000003Q141.52626320000002 400.491665 151.55296099999998 400.491665Q164.5761432 400.491665 178.23319709999998 400.03066739999997Q191.89025099999998 399.5696698 206.18117660000001 398.8781734Q220.58735159999998 398.0714276 235.2240254 396.8036842Q249.8606992 395.5359408 264.8431212 393.92244919999996Q279.7102938 392.0784588 294.7503405 389.8310955Q309.7903872 387.5837322 324.7728092 384.7024972Q339.98573 381.9365116 354.7952779 378.4790296Q369.6048258 375.02154759999996 384.0110008 370.7573198Q398.4171758 366.8388402 412.3047285 361.9407407Q426.19228119999997 357.0426412 439.5612116 351.51067Q452.69964319999997 345.8634494 465.0889537 339.58235709999997Q477.4782642 333.3012648 489.00320419999997 325.9253032Q491.8844392 324.0813128 494.9385483 321.8915742Q497.9926574 319.7018356 500.758643 316.93585Q503.63987799999995 314.4003632 506.4058636 311.5767529Q509.1718492 308.7531426 511.70733599999994 305.7566582Q514.012324 302.6449244 516.3749367 299.4755659Q518.7375494 296.3062074 520.6967892 292.8487254Q522.7712784 289.5064928 524.5000193999999 286.22188489999996Q526.2287603999999 282.937277 527.4965038 279.5950444Q529.3404942 275.6765648 529.6862424 273.3715768Q530.0319906 271.0665888 529.6862424 270.4903418H529.570993Q529.570993 270.37509239999997 529.4557436 270.37509239999997Q529.3404942 270.259843 529.3404942 270.259843Q529.2252448 270.259843 529.2252448 270.259843Q528.994746 270.1445936 528.8794966 270.1445936ZM262.3076344 418.355322Q261.616138 418.4705714 260.52126869999995 419.6230654Q259.4263994 420.7755594 258.158656 422.96529799999996Q256.5451644 425.0397872 254.9892975 427.6328987Q253.4334306 430.2260102 251.81993899999998 433.10724519999997Q250.2064474 436.10372959999995 248.8234546 438.98496459999996Q247.44046179999998 441.86619959999996 246.1727184 444.7474346Q245.02022439999996 447.743919 244.38635269999997 449.8184082Q243.752481 451.8928974 243.752481 452.930142Q243.752481 454.4283842 244.55922679999998 455.4656288Q245.36597259999996 456.5028734 246.74896539999997 457.6553674Q250.09119799999996 459.268859 254.35542579999998 462.0348446Q256.6604138 463.6483362 258.38915480000003 464.85845489999997Q260.1178958 466.0685736 261.5008886 467.336317Q264.497373 469.7565544 267.2633586 469.7565544Q269.107349 469.7565544 272.3343322 466.76007Q273.9478238 465.14657839999995 275.5036907 463.3602127Q277.0595576 461.573847 278.6730492 459.268859Q280.1712914 457.3096192 281.43903479999994 454.9470065Q282.7067782 452.5843938 283.9745216 450.2794058Q284.8965168 447.8591684 285.53038849999996 445.6694298Q286.1642602 443.4796912 286.1642602 441.52045139999996Q286.1642602 439.7917104 285.53038849999996 438.0053447Q284.8965168 436.218979 283.9745216 433.913991Q283.0525264 432.07000059999996 281.6695336 430.05313609999996Q280.2865408 428.03627159999996 278.4425504 426.3075306Q276.59855999999996 424.5787896 274.75456959999997 423.1381721Q272.9105792 421.6975546 270.6055912 420.4298112Q268.6463514 419.507816 266.5718622 418.93156899999997Q264.497373 418.355322 262.42288379999997 418.355322Q262.3076344 418.355322 262.3076344 418.355322ZM1078.158137 418.355322Q1077.4666406 418.4705714 1076.3717713 419.6230654Q1075.276902 420.7755594 1074.124408 422.96529799999996Q1072.5109164 425.0397872 1070.8974248 427.6328987Q1069.2839332 430.2260102 1067.785691 433.10724519999997Q1066.1721994 436.10372959999995 1064.7315819 438.98496459999996Q1063.2909644 441.86619959999996 1062.023221 444.7474346Q1060.870727 447.743919 1060.29448 449.8184082Q1059.718233 451.8928974 1059.718233 453.04539139999997Q1059.718233 454.4283842 1060.4673541000002 455.4656288Q1061.2164752 456.5028734 1062.7147174 457.6553674Q1066.05695 459.3841084 1070.3211778 462.0348446Q1072.5109164 463.6483362 1074.2972821 464.85845489999997Q1076.0836478 466.0685736 1077.4666406 467.336317Q1080.463125 469.7565544 1083.2291106 469.7565544Q1084.9578516 469.7565544 1088.3000842 466.76007Q1089.7983264 465.14657839999995 1091.411818 463.3602127Q1093.0253096 461.573847 1094.6388012 459.268859Q1096.021794 457.3096192 1097.2895374 454.9470065Q1098.5572808 452.5843938 1099.8250242 450.2794058Q1100.8622688 447.8591684 1101.4385158 445.6694298Q1102.0147628 443.4796912 1102.0147628 441.52045139999996Q1102.0147628 439.7917104 1101.4385158 438.0053447Q1100.8622688 436.218979 1099.8250242 433.913991Q1098.903029 432.07000059999996 1097.5200362 430.05313609999996Q1096.1370434 428.03627159999996 1094.4083024 426.3075306Q1092.4490626 424.5787896 1090.6050722 423.1381721Q1088.7610818 421.6975546 1086.5713432 420.4298112Q1084.496854 419.507816 1082.4223648 418.93156899999997Q1080.3478756 418.355322 1078.2733864 418.355322Q1078.158137 418.355322 1078.158137 418.355322Z" /></g></svg>
